<svg width="1200" height="700" viewBox="0 0 1200 700" fill="none" xmlns="http://www.w3.org/2000/svg">
<path d="M1200 0H0V700H1200V0Z" fill="#FF0000"/>
<path fill-rule="evenodd" clip-rule="evenodd" d="M626.957 529.124C620.807 523.792 613.352 512.994 613.457 502.586C614.007 494.825 619.33 490.316 622.769 499.79C627.631 510.247 638.059 527.539 652.429 517.395C658.707 512.787 658.609 506.003 650.001 506.781C639.371 506.053 632.841 500.204 628.084 485.145C627.219 476.863 630.664 477.07 635.471 482.398C641.651 489.488 653.949 500.204 667.517 494.461C675.057 491.301 677.185 484.781 665.794 483.176C655.01 483.333 646.207 476.342 637.444 465.678C632.639 459.778 639.726 453.822 643.981 458.844C647.776 462.104 653.091 468.11 657.646 468.938C662.913 469.972 669.442 469.458 676.676 465.628C684.474 459.101 681.942 454.392 672.476 453.308C665.138 453.672 661.141 456.461 651.676 450.148C634.662 438.648 621.136 423.283 619.023 404.801C617.635 392.645 624.171 388.964 629.605 390.363C644.385 394.165 654.054 421.785 664.28 436.958C667.628 441.331 670.704 441.402 672.88 440.054C676.982 436.537 680.258 433.646 684.36 429.714C684.36 429.714 714.445 435.12 730.828 440.46L712.586 446.943C705.679 443.129 697.343 447.241 697.343 453.858C690.807 458.378 691.333 463.677 694.153 468.791C695.013 465.23 695.747 460.605 700.91 459.99C708.279 463.038 716.865 458.688 716.865 452.933L738.384 444.475L760.124 456.783C760.124 465.103 768.007 467.739 776.209 465.493C780.074 467.893 782.559 472.057 783.868 476.51C786.288 470.088 785.783 465.554 781.993 462.403C784.168 454.1 772.533 446.116 763.526 451.433L747.886 442.453L774.656 441.703C777.763 447.203 788.993 447.506 792.269 441.703C795.069 440.936 797.435 440.448 802.894 444.506C801.174 437.94 797.826 435.133 792.804 435.133C788.988 428.372 775.178 428.403 773.184 436.015L745.303 436.79L761.846 425.012C768.021 428.658 776.686 424.605 778.421 417.982C780.883 415.055 783.919 413.68 789.895 415.666C786.815 410.211 782.475 408.583 774.637 412.286C767.487 406.868 758.063 413.439 759.493 418.894L737.483 433.869C721.507 429.102 692.573 421.679 692.573 421.679C696.018 418.055 699.513 414.688 702.952 411.014C704.194 408.862 702.296 406.356 699.659 405.834C673.843 400.506 659.062 390.099 650.106 363.648C646.36 352.57 654.459 349.26 657.242 356.036C661.092 365.46 665.34 375.76 676.932 383.736C680.93 386.532 692.831 384.249 685.792 377.572C678.502 371.566 675.364 368.984 671.772 354.382C671.772 346.984 679.312 343.667 683.518 350.758C688.018 365.303 688.478 371.566 696.625 380.938C702.798 388.03 710.848 392.795 714.845 392.688C722.037 392.588 729.277 384.818 719.658 379.177C705.533 373.535 700.371 365.824 698.292 358.469C696.018 345.636 698.502 339.423 706.244 345.736C717.224 358.212 738.184 381.453 749.164 392.274C761.469 401.698 775.587 402.004 786.824 392.431C793.256 385.027 790.974 377.059 780.903 378.764C758.177 380.682 740.968 369.397 722.086 338.902C718.389 332.018 717.376 322.131 725.531 329.486C734.941 342.219 748.661 353.04 761.421 357.698C774.227 362.3 784.801 359.758 788.902 355.73C793.845 350.788 792.545 338.338 783.992 341.34C776.954 343.824 767.035 344.444 756.712 340.457C746.381 336.419 735.652 327.724 724.262 312.972C720.362 304.64 721.632 297.599 729.527 301.892C748.207 317.737 772.302 330.57 784.599 322.859C793.661 317.216 793.814 302.721 782.325 303.655C759.188 306.808 750.434 301.687 728.21 282.07C723.152 278.289 723.502 268.709 731.55 274.822C750.23 286.885 775.74 291.592 785.764 285.28C794.777 279.637 793.458 262.395 778.273 268.502C766.122 275.906 752.708 275.699 725.831 256.496C719.051 250.854 724.108 243.499 729.675 246.659C751.292 258.979 782.779 264.257 790.975 239.205C794.163 229.631 788.395 224.039 779.94 230.665C761.364 247.85 740.305 239.411 728.517 230.765C725.141 228.775 718.947 218.703 729.827 220.572C757.974 226.992 785.813 221.4 790.877 201.469C793.814 194.999 788.037 183.557 777.764 193.137C764.252 206.491 749.924 206.954 731.907 206.854C722.741 204.936 722.644 194.842 730.337 193.344C744.56 193.65 758.581 187.437 769.819 181.124C780.805 174.811 789.915 165.958 792.803 153.689C794.573 142.717 783.993 131.069 777.617 142.717C768.2 159.745 747.344 175.795 724.157 178.692C722.95 176.672 719.909 171.494 716.163 172.949C709.355 175.589 701.243 179.121 692.891 183.088C674.887 191.637 667.384 195.757 669.546 210.528C671.803 225.941 659.92 235.681 650.106 232.991C641.546 230.687 636.824 222.955 638.358 209.544C639.587 198.858 650.315 185.932 662.404 179.154C670.23 174.774 682.046 172.378 696.269 169.218C704.925 167.513 709.334 164.146 709.837 160.622C709.837 160.622 703.92 164.952 694.449 164.302C689.971 163.982 686.971 162.012 685.841 160.002C689.134 159.332 695.105 160.109 700.469 160.109C707.604 160.052 724.171 158.454 728.566 148.409C729.933 141.783 725.579 140.592 721.528 144.836C717.175 149.423 715.382 153.546 706.648 155.086C701.334 156.021 696.018 157.106 689.182 155.451C693.032 150.878 699.15 146.199 704.368 147.061C706.084 147.347 708.365 148.931 710.192 151.777C711.308 144.529 709.327 136.347 689.942 139.764C690.25 134.279 678.704 131.896 671.772 132.003C667.824 132.103 659.774 134.436 653.956 137.225C644.742 140.078 635.632 142.147 624.896 142.925C631.126 148.253 632.291 148.567 638.512 153.068C629.102 156.585 621.812 163.833 618.521 168.598C618.521 168.598 629.507 168.291 632.291 169.532C620.795 172.892 615.632 174.911 609.558 181.124C611.685 181.488 614.872 182.108 616.24 182.629C617.663 183.143 617.293 184.077 616.142 184.955C613.666 186.845 603.434 198.729 600.448 201.575C597.462 198.729 587.23 186.845 584.754 184.955C583.603 184.077 583.233 183.143 584.656 182.629C586.023 182.109 589.211 181.488 591.338 181.124C585.263 174.911 580.101 172.892 568.605 169.532C571.389 168.291 582.375 168.598 582.375 168.598C579.082 163.833 571.793 156.585 562.383 153.068C568.605 148.567 569.77 148.253 575.999 142.924C565.264 142.147 556.154 140.078 546.939 137.224C541.122 134.436 533.072 132.103 529.124 132.003C522.191 131.896 510.646 134.279 510.954 139.763C491.569 136.347 489.588 144.529 490.704 151.777C492.531 148.931 494.812 147.347 496.528 147.062C501.746 146.199 507.863 150.878 511.714 155.451C504.878 157.106 499.562 156.021 494.247 155.087C485.514 153.547 483.721 149.423 479.367 144.837C475.316 140.592 470.963 141.783 472.33 148.41C476.725 158.454 493.29 160.052 500.427 160.109C505.791 160.109 511.762 159.331 515.055 160.002C513.925 162.014 510.925 163.982 506.447 164.302C496.975 164.952 491.059 160.622 491.059 160.622C491.562 164.146 495.969 167.512 504.627 169.218C518.85 172.378 530.666 174.775 538.492 179.155C550.581 185.932 561.309 198.858 562.537 209.544C564.071 222.954 559.349 230.687 550.79 232.991C540.976 235.681 529.093 225.941 531.35 210.528C533.512 195.757 526.009 191.637 508.005 183.088C499.653 179.121 491.541 175.588 484.733 172.948C480.987 171.494 477.946 176.673 476.739 178.692C453.552 175.795 432.696 159.745 423.279 142.717C416.903 131.069 406.322 142.717 408.093 153.689C410.981 165.959 420.091 174.811 431.077 181.124C442.315 187.437 456.336 193.65 470.559 193.344C478.252 194.842 478.155 204.936 468.989 206.854C450.971 206.954 436.644 206.491 423.132 193.137C412.858 183.557 407.082 194.999 410.019 201.469C415.083 221.399 442.922 226.992 471.068 220.572C481.948 218.702 475.755 228.776 472.378 230.766C460.591 239.411 439.532 247.85 420.956 230.666C412.502 224.039 406.732 229.631 409.921 239.205C418.117 264.257 449.604 258.979 471.221 246.659C476.788 243.499 481.845 250.854 475.065 256.496C448.188 275.699 434.775 275.906 422.623 268.502C407.438 262.395 406.119 279.637 415.132 285.28C425.155 291.593 450.665 286.885 469.345 274.822C477.395 268.709 477.743 278.289 472.685 282.07C450.462 301.687 441.708 306.808 418.571 303.655C407.081 302.721 407.235 317.215 416.297 322.859C428.594 330.569 452.687 317.737 471.367 301.893C479.264 297.599 480.533 304.64 476.634 312.972C465.244 327.724 454.514 336.419 444.184 340.457C433.861 344.444 423.942 343.824 416.904 341.341C408.351 338.338 407.051 350.788 411.993 355.73C416.096 359.758 426.669 362.3 439.476 357.698C452.234 353.04 465.955 342.218 475.365 329.486C483.519 322.131 482.507 332.018 478.81 338.902C459.928 369.397 442.72 380.682 419.993 378.764C409.921 377.059 407.64 385.027 414.071 392.431C425.309 402.004 439.427 401.698 451.731 392.274C462.711 381.453 483.671 358.212 494.651 345.736C502.394 339.423 504.878 345.636 502.604 358.469C500.524 365.824 495.364 373.535 481.238 379.177C471.618 384.82 478.858 392.587 486.051 392.687C490.048 392.795 498.098 388.03 504.271 380.939C512.418 371.566 512.879 365.303 517.378 350.758C521.584 343.667 529.124 346.984 529.124 354.381C525.532 368.984 522.393 371.566 515.104 377.571C508.064 384.249 519.966 386.531 523.963 383.736C535.556 375.76 539.803 365.46 543.653 356.036C546.437 349.26 554.536 352.57 550.79 363.648C541.834 390.098 527.053 400.506 501.237 405.835C498.6 406.355 496.702 408.862 497.943 411.014C501.383 414.688 504.878 418.054 508.323 421.679C508.323 421.679 479.388 429.102 463.412 433.869L441.402 418.894C442.832 413.439 433.409 406.868 426.258 412.284C418.419 408.583 414.08 410.211 411 415.666C416.976 413.68 420.012 415.055 422.474 417.981C424.209 424.605 432.874 428.658 439.049 425.011L455.592 436.791L427.712 436.015C425.717 428.404 411.907 428.372 408.09 435.133C403.07 435.133 399.72 437.94 398 444.506C403.46 440.448 405.827 440.936 408.626 441.703C411.902 447.506 423.132 447.203 426.238 441.703L453.009 442.453L437.369 451.433C428.362 446.116 416.727 454.1 418.902 462.403C415.112 465.553 414.606 470.088 417.027 476.51C418.335 472.057 420.821 467.893 424.687 465.492C432.887 467.739 440.771 465.104 440.771 456.782L462.511 444.475L484.031 452.933C484.031 458.688 492.616 463.038 499.985 459.99C505.148 460.605 505.882 465.23 506.742 468.79C509.562 463.677 510.088 458.378 503.552 453.858C503.552 447.241 495.216 443.128 488.309 446.943L470.067 440.46C486.45 435.12 516.536 429.715 516.536 429.715C520.637 433.645 523.913 436.537 528.016 440.055C530.192 441.402 533.268 441.331 536.616 436.958C546.842 421.785 556.51 394.165 571.291 390.363C576.725 388.963 583.261 392.645 581.873 404.801C579.759 423.283 566.233 438.649 549.221 450.148C539.755 456.461 535.758 453.672 528.42 453.308C518.954 454.392 516.422 459.101 524.22 465.628C531.454 469.458 537.983 469.972 543.25 468.938C547.805 468.11 553.12 462.104 556.915 458.844C561.17 453.822 568.257 459.778 563.451 465.678C554.689 476.342 545.886 483.333 535.101 483.176C523.711 484.781 525.839 491.301 533.379 494.461C546.947 500.204 559.244 489.489 565.425 482.398C570.231 477.07 573.677 476.863 572.812 485.145C568.054 500.204 561.525 506.053 550.895 506.781C542.287 506.003 542.189 512.787 548.467 517.395C562.837 527.539 573.265 510.247 578.127 499.79C581.566 490.317 586.887 494.825 587.439 502.586C587.544 512.994 580.089 523.792 573.939 529.124C567.791 534.458 600.447 568.36 600.447 568.36C600.447 568.36 633.104 534.456 626.956 529.123L626.957 529.124ZM670.72 145.184C665.637 145.184 662.497 146.964 662.497 149.124C662.497 151.318 665.637 153.106 670.72 153.106C675.773 153.106 678.982 151.156 678.982 148.959C678.982 146.799 675.772 145.183 670.72 145.183V145.184ZM530.176 145.184C535.259 145.184 538.399 146.964 538.399 149.124C538.399 151.318 535.259 153.106 530.176 153.106C525.123 153.106 521.914 151.156 521.914 148.959C521.914 146.799 525.124 145.183 530.176 145.183V145.184Z" fill="black"/>
</svg>
