<svg width="20" height="20" viewBox="0 0 20 20" fill="none" xmlns="http://www.w3.org/2000/svg">
<path d="M20 10.1344H19.1304V3.59437C19.1304 1.63882 17.5395 0.0478516 15.584 0.0478516C13.6284 0.0478516 12.0374 1.63882 12.0374 3.59437V4.07226H10.7508V5.30938H14.5612V4.07226H13.2745V3.59437C13.2745 2.32096 14.3105 1.28496 15.5839 1.28496C16.8573 1.28496 17.8933 2.32096 17.8933 3.59437V10.1344H0V11.3715H0.869567V13.5476C0.869567 16.0796 2.77217 18.1755 5.22276 18.481V19.9519H6.45988V18.5194H13.54V19.9519H14.7772V18.481C17.2278 18.1755 19.1304 16.0796 19.1304 13.5476V11.3715H20V10.1344ZM8.1094 11.3715H11.8906V13.9833H8.1094V11.3715ZM17.8933 13.5476C17.8933 15.6069 16.218 17.2823 14.1587 17.2823H5.84136C3.78206 17.2823 2.10672 15.607 2.10672 13.5476V11.3715H6.87229V15.2205H13.1277V11.3715H17.8933V13.5476H17.8933Z" fill="#C38F5B"/>
</svg>
