<?xml version="1.0" encoding="utf-8"?>
<!-- Generator: Adobe Illustrator 25.2.0, SVG Export Plug-In . SVG Version: 6.00 Build 0)  -->
<svg version="1.0" id="Layer_1" xmlns="http://www.w3.org/2000/svg" xmlns:xlink="http://www.w3.org/1999/xlink" x="0px" y="0px"
	 viewBox="0 0 180.731 48.24" enable-background="new 0 0 180.731 48.24" xml:space="preserve">
<g>
	<g>
		<g className="left-group">
			<path fillRule="evenodd" clipRule="evenodd" d="M13.284,36.406l0.819-3.481c-0.942,1.392-2.007,2.416-3.112,3.071
				s-2.375,0.983-3.767,0.983c-2.375,0-4.218-0.819-5.487-2.416s-1.843-3.767-1.72-6.511c0.164-3.645,1.269-6.716,3.317-9.214
				s4.505-3.726,7.33-3.726c1.638,0,2.948,0.328,3.931,0.983c0.942,0.655,1.679,1.72,2.129,3.194l2.621-10.811h5.61l-6.511,27.969
				L13.284,36.406z M11.605,19.821c-1.515,0-2.826,0.778-3.972,2.293c-1.147,1.556-1.761,3.399-1.843,5.569
				c-0.082,1.556,0.205,2.703,0.86,3.522c0.655,0.819,1.638,1.188,2.948,1.188c1.638,0,2.989-0.737,4.095-2.252
				s1.679-3.44,1.802-5.897c0.082-1.433-0.205-2.58-0.86-3.317C13.899,20.189,12.916,19.821,11.605,19.821z"/>
			<path fillRule="evenodd" clipRule="evenodd" d="M47.929,15.726l-4.873,20.721h-5.201l0.778-3.317
				c-1.269,1.351-2.498,2.334-3.686,2.948c-1.188,0.614-2.457,0.901-3.89,0.901c-1.966,0-3.481-0.532-4.586-1.556
				c-1.106-1.024-1.597-2.375-1.515-4.095c0.041-0.41,0.082-0.819,0.123-1.229c0.082-0.41,0.123-0.819,0.246-1.188l3.112-13.186
				h5.815l-3.112,13.022c-0.082,0.246-0.123,0.45-0.164,0.696c-0.041,0.205-0.082,0.45-0.082,0.614
				c-0.041,0.778,0.164,1.351,0.614,1.761s1.106,0.614,1.966,0.614c1.474,0,2.744-0.491,3.808-1.515
				c1.106-1.024,1.843-2.416,2.252-4.177l2.662-11.057L47.929,15.726z"/>
			<polygon fillRule="evenodd" clipRule="evenodd" points="48.256,36.488 54.808,8.519 60.5,8.519 57.02,23.261 65.005,15.767 
				71.475,15.767 62.875,23.834 67.093,36.488 61.319,36.488 58.494,27.601 55.3,30.632 53.825,36.488 			"/>
		</g>
		<g class="right-group">
		<polygon fillRule="evenodd" clipRule="evenodd" points="127.7,13.555 128.888,8.641 134.539,8.682 133.392,13.596 		"/>
		<path fillRule="evenodd" clipRule="evenodd" d="M117.913,44.719l0.86-4.259h0.246c0.942,0,1.597-0.123,1.925-0.41
			c0.369-0.287,0.655-0.942,0.942-1.884l5.324-22.236h5.651l-5.283,21.827c-0.655,2.785-1.515,4.668-2.662,5.651
			c-1.106,0.983-2.867,1.474-5.324,1.474c-0.205,0-0.41,0-0.696-0.041C118.609,44.801,118.282,44.76,117.913,44.719"/>
		<polygon fillRule="evenodd" clipRule="evenodd" points="138.552,13.555 139.699,8.682 145.432,8.682 144.326,13.555 		"/>
		<polygon fillRule="evenodd" clipRule="evenodd" points="133.188,36.611 138.02,15.89 143.712,15.931 138.88,36.611 		"/>
		<path fillRule="evenodd" clipRule="evenodd" d="M143.917,36.652l4.832-20.721h5.242l-0.778,3.194
			c1.229-1.351,2.457-2.334,3.645-2.907c1.188-0.614,2.498-0.901,3.931-0.901c1.925,0,3.44,0.532,4.546,1.556
			c1.106,1.024,1.597,2.416,1.515,4.136c0,0.41-0.041,0.819-0.123,1.188c-0.041,0.41-0.123,0.819-0.246,1.229l-3.153,13.268h-5.733
			l3.071-13.145c0.041-0.246,0.123-0.532,0.164-0.737c0.041-0.246,0.041-0.41,0.082-0.573c0.041-0.778-0.164-1.351-0.614-1.72
			c-0.45-0.41-1.106-0.614-2.007-0.614c-1.474,0-2.744,0.491-3.808,1.474c-1.106,1.024-1.843,2.375-2.252,4.136l-2.621,11.179
			L143.917,36.652z"/>
		<polygon fillRule="evenodd" clipRule="evenodd" points="173.892,13.596 175.039,8.723 180.731,8.764 179.626,13.596 		"/>
		<polygon fillRule="evenodd" clipRule="evenodd" points="168.528,36.693 173.319,15.972 179.011,15.972 174.22,36.693 		"/>
		<path fillRule="evenodd" clipRule="evenodd" d="M97.028,38.494h5.774c0,0.778,0.246,1.351,0.737,1.761
			c0.532,0.369,1.31,0.573,2.416,0.573c1.72,0,2.989-0.45,3.808-1.392c0.819-0.901,1.556-2.948,2.252-6.102
			c-0.86,1.147-1.802,1.966-2.826,2.539c-1.024,0.532-2.17,0.819-3.44,0.819c-2.334,0-4.177-0.819-5.446-2.375
			c-1.269-1.597-1.843-3.767-1.72-6.511c0.164-3.604,1.31-6.593,3.358-8.927c2.048-2.334,4.586-3.481,7.576-3.481
			c1.679,0,3.03,0.369,3.972,1.106c0.942,0.737,1.597,1.925,2.007,3.522l0.942-4.136h5.487l-4.914,20.639
			c-0.696,2.989-1.925,5.16-3.727,6.47c-1.802,1.31-4.382,1.966-7.781,1.925c-2.785,0-4.873-0.532-6.306-1.638
			C97.683,42.221,96.987,40.624,97.028,38.494 M110.214,20.067c-1.597,0-2.948,0.696-4.054,2.129
			c-1.106,1.433-1.72,3.276-1.802,5.487c-0.082,1.392,0.246,2.498,0.901,3.235c0.655,0.778,1.638,1.147,2.948,1.147
			c1.597,0,2.948-0.696,3.972-2.088s1.597-3.235,1.72-5.61c0.082-1.433-0.205-2.498-0.819-3.235
			C112.426,20.435,111.484,20.067,110.214,20.067z"/>
		</g>
		<path fillRule="evenodd" clipRule="evenodd" d="M90.968,18.101c-0.328,1.31-0.819,2.375-1.392,3.235
			c-0.614,0.86-1.392,1.597-2.334,2.252c-1.679,1.106-3.235,1.474-4.791,1.188c-1.515-0.287-2.744-1.229-3.645-2.785
			c-1.188-2.007-1.474-3.89-0.901-5.651c0.573-1.761,2.17-3.727,4.75-5.815c0.246-0.205,0.573-0.491,1.024-0.819
			c2.048-1.638,2.785-2.989,2.17-4.013c-0.287-0.491-0.778-0.696-1.433-0.655s-1.433,0.328-2.252,0.86
			c-0.819,0.532-1.392,1.106-1.638,1.72c-0.246,0.614-0.287,1.269,0,2.007l-4.627,3.03c-0.778-2.048-0.819-3.931-0.082-5.651
			c0.737-1.72,2.252-3.317,4.546-4.832c2.293-1.474,4.341-2.211,6.143-2.17c1.802,0.041,3.194,0.86,4.095,2.416
			c0.082,0.164,0.205,0.328,0.287,0.532c0.082,0.205,0.164,0.369,0.246,0.573l3.89,10.565c0.123,0.246,0.205,0.45,0.287,0.655
			c0.082,0.205,0.164,0.369,0.287,0.532c0.164,0.287,0.369,0.532,0.532,0.655c0.205,0.164,0.41,0.246,0.696,0.287l0.246,0.45
			l-4.955,3.276L90.968,18.101z M87.855,10.73c-0.573,0.696-1.433,1.556-2.539,2.621c-2.129,2.007-2.826,3.726-2.007,5.119
			c0.328,0.532,0.737,0.819,1.31,0.901c0.573,0.082,1.188-0.123,1.843-0.532c1.024-0.655,1.761-1.556,2.17-2.621
			c0.41-1.106,0.45-2.17,0.082-3.194L87.855,10.73z"/>
		
	</g>
	<polygon points="135.153,43.449 133.106,43.449 132.655,45.784 131.55,45.784 132.655,40.583 133.72,40.583 133.31,42.589 
		135.317,42.589 135.727,40.583 136.791,40.583 135.727,45.784 134.662,45.784 	"/>
	<path d="M142.361,43.736c0,0.164,0.041,0.328,0.082,0.491c0.041,0.164,0.123,0.287,0.246,0.41s0.246,0.205,0.369,0.287
		s0.287,0.082,0.491,0.082c0.287,0,0.573-0.082,0.819-0.287c0.123-0.082,0.246-0.205,0.369-0.369s0.205-0.328,0.287-0.491
		c0.164-0.369,0.246-0.778,0.246-1.147c0-0.205-0.041-0.369-0.082-0.532c-0.041-0.164-0.123-0.287-0.246-0.41
		s-0.246-0.205-0.369-0.246c-0.123-0.041-0.287-0.082-0.45-0.082c-0.246,0-0.491,0.041-0.696,0.205
		c-0.205,0.123-0.41,0.328-0.573,0.532c-0.164,0.205-0.287,0.491-0.369,0.778C142.401,43.163,142.361,43.449,142.361,43.736
		 M141.296,43.736c0-0.164,0-0.328,0.041-0.45c0-0.164,0.041-0.328,0.123-0.491c0.041-0.246,0.123-0.45,0.246-0.655
		c0.082-0.205,0.205-0.369,0.328-0.532c0.123-0.164,0.246-0.328,0.41-0.45c0.164-0.123,0.328-0.246,0.532-0.369
		c0.205-0.082,0.41-0.164,0.614-0.205c0.205-0.041,0.45-0.082,0.696-0.082c0.328,0,0.614,0.041,0.86,0.164
		c0.246,0.123,0.491,0.246,0.696,0.45c0.205,0.205,0.369,0.41,0.45,0.696c0.082,0.246,0.164,0.573,0.164,0.901
		c0,0.287-0.041,0.532-0.082,0.819c-0.041,0.287-0.164,0.532-0.287,0.778c-0.123,0.246-0.287,0.491-0.45,0.696
		c-0.164,0.205-0.369,0.369-0.614,0.491c-0.205,0.123-0.45,0.246-0.696,0.328s-0.532,0.123-0.778,0.123
		c-0.246,0-0.45-0.041-0.655-0.082c-0.205-0.041-0.369-0.123-0.532-0.246s-0.328-0.246-0.41-0.369
		c-0.123-0.123-0.205-0.287-0.287-0.45c-0.082-0.164-0.123-0.328-0.164-0.491C141.337,44.064,141.296,43.9,141.296,43.736z"/>
	<polygon points="153.049,45.784 151.984,45.784 152.885,41.484 151.37,41.484 151.533,40.583 155.628,40.583 155.465,41.484 
		153.949,41.484 	"/>
	<polygon points="159.396,45.784 160.502,40.583 164.31,40.583 164.146,41.484 161.362,41.484 161.116,42.63 163.819,42.63 
		163.614,43.49 160.911,43.49 160.624,44.924 163.614,44.924 163.45,45.784 	"/>
	<polygon points="168.446,45.784 169.511,40.583 170.575,40.583 169.674,44.924 172.336,44.924 172.132,45.784 	"/>
	<g class="center-group">
	<path fillRule="evenodd" clipRule="evenodd" d="M88.019,40.296c0.082-0.287,0.164-0.532,0.287-0.737s0.287-0.328,0.491-0.45
		c-0.123-0.123-0.246-0.287-0.369-0.491c-0.123-0.205-0.205-0.45-0.287-0.737c-0.082-0.287-0.164-0.655-0.205-1.065
		c-0.041,0.41-0.123,0.778-0.205,1.065s-0.164,0.532-0.287,0.737c-0.123,0.205-0.205,0.369-0.328,0.491
		c0.164,0.123,0.328,0.287,0.491,0.45c0.082,0.123,0.164,0.287,0.246,0.491H76.594c0.041-0.205,0.164-0.328,0.246-0.491
		c0.123-0.205,0.287-0.328,0.491-0.45c-0.123-0.123-0.246-0.287-0.328-0.491c-0.123-0.205-0.205-0.45-0.287-0.737
		c-0.082-0.287-0.164-0.655-0.205-1.065c-0.041,0.41-0.123,0.778-0.205,1.065s-0.164,0.532-0.287,0.737
		c-0.123,0.205-0.205,0.369-0.328,0.491c0.164,0.123,0.328,0.287,0.491,0.45c0.123,0.164,0.205,0.369,0.246,0.614h-0.082
		l-0.041,0.123c-0.041,0.123-0.041,0.246-0.123,0.369c-0.041,0.123-0.082,0.205-0.164,0.287c-0.082,0.082-0.123,0.164-0.205,0.246
		c-0.082,0.082-0.164,0.123-0.246,0.205l-0.123,0.082l0.082,0.123c0.041,0.041,0.123,0.123,0.164,0.205
		c0.041,0.082,0.123,0.164,0.164,0.246c0.041,0.082,0.082,0.205,0.164,0.328c0.041,0.123,0.082,0.246,0.123,0.41
		c0.041,0.164,0.082,0.287,0.123,0.491c0.041,0.164,0.082,0.369,0.082,0.573h0.246c0.041-0.205,0.041-0.41,0.082-0.573
		c0.041-0.164,0.082-0.328,0.123-0.491c0.041-0.164,0.082-0.287,0.123-0.369c0.041-0.123,0.082-0.205,0.164-0.328
		c0.041-0.082,0.123-0.164,0.164-0.246c0.041-0.082,0.123-0.164,0.164-0.205l0.082-0.123l-0.123-0.082
		c-0.082-0.041-0.164-0.123-0.246-0.205c-0.082-0.082-0.164-0.164-0.205-0.246c-0.082-0.082-0.123-0.205-0.164-0.287
		c-0.041-0.123-0.082-0.205-0.123-0.369h11.302l0,0c-0.082,0.287-0.164,0.532-0.328,0.737c-0.164,0.205-0.287,0.328-0.491,0.45
		c0.123,0.123,0.246,0.287,0.328,0.491c0.123,0.205,0.205,0.45,0.287,0.737c0.082,0.287,0.164,0.655,0.205,1.065
		c0.041-0.41,0.123-0.778,0.205-1.065c0.082-0.287,0.164-0.532,0.287-0.737c0.123-0.205,0.205-0.369,0.369-0.491
		c-0.205-0.123-0.369-0.287-0.491-0.45C88.183,40.829,88.06,40.583,88.019,40.296 M76.553,40.747
		c-0.041-0.041-0.041-0.123-0.041-0.164c0,0.041-0.041,0.123-0.041,0.164c-0.041,0.123-0.123,0.246-0.205,0.369
		c-0.082,0.082-0.164,0.205-0.246,0.287c-0.041,0.041-0.123,0.123-0.164,0.164c0.041,0.041,0.082,0.082,0.082,0.123
		c0.041,0.082,0.123,0.164,0.164,0.287c0.041,0.123,0.123,0.205,0.164,0.328c0.041,0.123,0.082,0.246,0.164,0.41
		c0.041,0.123,0.082,0.246,0.082,0.369c0.041-0.123,0.041-0.246,0.082-0.369c0.041-0.164,0.082-0.287,0.123-0.41
		c0.041-0.123,0.123-0.246,0.164-0.369c0.041-0.123,0.123-0.205,0.164-0.287c0.041-0.041,0.082-0.082,0.082-0.123
		c-0.041-0.041-0.123-0.082-0.164-0.164c-0.082-0.082-0.164-0.164-0.246-0.287C76.676,40.992,76.594,40.869,76.553,40.747z
		 M82.122,44.596c-0.123-0.41-0.123,3.399-5.487,3.645l-6.143-0.082V31.983h5.651c3.317,0,5.405,2.007,6.02,3.686v3.358h-4.259
		v-1.925c0-0.41,0.041-0.696,0.164-0.942s0.369-0.369,0.696-0.41l0.778-0.082v-0.983h-6.184v0.983l0.778,0.082
		c0.328,0.041,0.532,0.205,0.655,0.41c0.123,0.246,0.164,0.532,0.164,0.942v5.897c0,0.41-0.082,0.737-0.205,0.942
		c-0.164,0.246-0.369,0.369-0.614,0.41l-0.778,0.082v0.983h6.184v-0.983l-0.778-0.082c-0.287-0.041-0.491-0.164-0.655-0.41
		c-0.164-0.246-0.205-0.573-0.205-0.942v-1.638h4.259L82.122,44.596c0.123-0.41,0.123,3.399,5.528,3.645l6.143-0.082V31.983h-5.651
		c-3.317,0-5.405,2.007-5.979,3.686v3.358h4.464v-1.925c0-0.41-0.041-0.696-0.164-0.942c-0.123-0.246-0.328-0.41-0.655-0.41
		l-0.819-0.082v-0.983h6.184v0.983l-0.819,0.082c-0.287,0.041-0.532,0.205-0.655,0.41c-0.123,0.246-0.164,0.532-0.164,0.942v5.897
		c0,0.41,0.082,0.737,0.205,0.942c0.123,0.205,0.328,0.369,0.614,0.41l0.819,0.082v0.983h-6.184v-0.983l0.778-0.082
		c0.287-0.041,0.491-0.164,0.614-0.41c0.164-0.246,0.205-0.573,0.205-0.942v-1.638h-4.464L82.122,44.596L82.122,44.596z"/>
	</g>
	<g class="bottom-left-group">
	<polygon fillRule="evenodd" clipRule="evenodd" points="62.384,38.453 63.572,42.098 67.421,42.098 64.309,44.35 65.496,48.036 
		62.384,45.743 59.272,48.036 60.459,44.35 57.347,42.098 61.197,42.098 	"/>
	<polygon fillRule="evenodd" clipRule="evenodd" points="48.42,38.453 49.608,42.098 53.457,42.098 50.345,44.35 51.573,48.036 
		48.42,45.743 45.308,48.036 46.536,44.35 43.383,42.098 47.273,42.098 	"/>
	<polygon fillRule="evenodd" clipRule="evenodd" points="34.497,38.453 35.684,42.098 39.534,42.098 36.421,44.35 37.609,48.036 
		34.497,45.743 31.385,48.036 32.572,44.35 29.46,42.098 33.309,42.098 	"/>
	<polygon fillRule="evenodd" clipRule="evenodd" points="20.574,38.453 21.761,42.098 25.61,42.098 22.498,44.35 23.686,48.036 
		20.574,45.743 17.461,48.036 18.649,44.35 15.537,42.098 19.386,42.098 	"/>
	<polygon fillRule="evenodd" clipRule="evenodd" points="6.609,38.453 7.797,42.098 11.646,42.098 8.534,44.35 9.722,48.036 
		6.609,45.743 3.497,48.036 4.685,44.35 1.573,42.098 5.422,42.098 	"/>
	</g>
</g>
</svg>
