<?xml version="1.0" encoding="utf-8"?>
<!-- Generator: Adobe Illustrator 24.0.1, SVG Export Plug-In . SVG Version: 6.00 Build 0)  -->
<svg version="1.1" id="Layer_1" xmlns="http://www.w3.org/2000/svg" xmlns:xlink="http://www.w3.org/1999/xlink" x="0px" y="0px"
	 viewBox="0 0 500 500" style="enable-background:new 0 0 500 500;" xml:space="preserve">
<style type="text/css">
	.st0{fillRule:evenodd;clipRule:evenodd;}
</style>
<g>
	<g>
		<polygon points="461.3,330.5 466.4,297.2 425.7,290.8 423.8,260.7 372.9,238.4 370.1,125.5 389.7,118.9 385.7,115.9 385.6,115.9 
			385.5,115.9 349.4,106.8 308.1,97.2 307.6,80.4 304.8,79.9 300,82.5 300.8,96 261.4,87.9 261.5,73.2 258,72.7 254.4,75 
			254.2,87.4 236.6,88.5 236.5,81.9 234,81.4 228.6,84.7 229,87.8 229.1,88.6 209.4,97.2 203.4,95.5 197.2,99.1 197.4,100.4 
			199.6,101.4 201.5,102.3 127.5,145.3 127.5,145.5 127.5,146.1 125.6,147.3 125.6,147.6 124.6,147.6 124.7,146.5 142,148.4 
			141.7,178.8 129.9,183.5 130.1,173.1 128.4,173 126.8,173.7 127.3,184.6 114,190.1 114.4,180 112.6,179.9 111.4,180.6 
			111.7,190.8 99,196.4 99.2,187.3 97.9,187.2 97,187.5 97.2,197.1 91,200.1 77.8,198.3 76.1,198.9 76.1,199.1 77.8,199.8 78.5,200 
			78.7,204.6 45.7,219.3 45.3,218.3 46.4,218.1 46.5,218.7 46.5,219 46.5,219.1 55.7,219.5 56,329.6 53.8,329.6 53.5,221.6 
			43,221.1 44.2,218.6 44.2,218.4 44.1,217.6 76.4,203.2 76.4,201.5 74.6,200.9 73.9,200.6 73.9,198.2 73.9,197.4 77.6,196.1 
			90.6,197.8 95,195.7 94.8,185.9 97.3,185.1 97.6,185 100.4,185.1 101.4,185.2 101.3,193 109.4,189.4 109.1,179.4 112.1,177.7 
			116.6,177.9 116.3,186.7 125,183.1 124.5,172.3 128,170.8 131.3,171 132.3,171.1 132.2,180.3 139.5,177.3 139.8,150.4 
			123.4,148.6 123.4,146.7 123.4,146.1 125.3,144.9 125.3,144.6 125.3,144 196.8,102.5 195.9,102.1 195.4,101.9 194.7,98 
			203.1,93.1 209.2,94.9 226.7,87.3 226.3,84.3 226.2,83.5 233.5,79.2 238.6,80 238.8,86.1 252,85.3 252.2,73.8 257.5,70.4 
			263.8,71.2 263.6,86.1 298.5,93.2 297.7,81.3 304.4,77.6 309.8,78.6 310.3,95.5 350,104.7 385.7,113.7 386,113.7 386.4,113.6 
			394.3,119.6 372.3,127.1 375.1,237 425.9,259.2 427.8,288.9 468.9,295.4 463.5,330.9 		"/>
		<polygon points="126.1,199.8 125.7,198.8 131.2,196.8 131.1,210.5 125,212.4 125,199.1 125.7,198.8 126.1,199.8 127.2,199.8 
			127.2,209.4 128.9,208.9 129,199.9 126.4,200.9 126.1,199.8 127.2,199.8 		"/>
		<polygon points="115.3,203.7 114.9,202.6 121,200.4 121,213.7 114.2,215.9 114.2,202.9 114.9,202.6 115.3,203.7 116.3,203.7 
			116.3,212.9 118.8,212.1 118.8,203.6 115.6,204.7 115.3,203.7 116.3,203.7 		"/>
		<polygon points="106,206.9 105.7,205.9 110.6,204.1 110.6,217 104.9,218.9 104.9,206.2 105.7,205.9 106,206.9 107.1,206.9 
			107.1,215.9 108.4,215.4 108.4,207.2 106.4,208 106,206.9 107.1,206.9 		"/>
		<polygon points="97.5,209.9 97.2,208.9 102,207.2 102,219.8 96.4,221.6 96.4,209.2 97.2,208.9 97.5,209.9 98.6,209.9 98.6,218.6 
			99.8,218.2 99.8,210.3 97.9,211 97.5,209.9 98.6,209.9 		"/>
		<polygon points="89.8,212.7 89.5,211.6 92,210.7 93.5,210.2 93.5,222.5 88.8,224.1 88.8,211.9 89.5,211.6 89.8,212.7 90.9,212.7 
			90.9,221.1 91.3,220.9 91.3,213.3 90.2,213.7 89.8,212.7 90.9,212.7 		"/>
		<polygon points="82.2,215.4 81.8,214.4 84.3,213.5 85.8,213 85.8,225 81.1,226.5 81.1,214.6 81.8,214.4 82.2,215.4 83.3,215.4 
			83.3,223.5 83.6,223.4 83.6,216.1 82.6,216.4 82.2,215.4 83.3,215.4 		"/>
		<polygon points="74.8,218 74.5,217 77,216.1 78.5,215.6 78.5,227.3 73.7,228.9 73.7,217.2 74.5,217 74.8,218 75.9,218 75.9,225.9 
			76.3,225.7 76.3,218.6 75.2,219 74.8,218 75.9,218 		"/>
		<polygon points="68.6,220.2 68.3,219.2 70.7,218.3 72.2,217.8 72.2,229.4 67.5,230.8 67.5,219.4 68.3,219.2 68.6,220.2 
			69.7,220.2 69.7,227.8 70,227.8 70,220.9 69,221.2 68.6,220.2 69.7,220.2 		"/>
		<polygon points="63.2,222.1 62.8,221.1 64.8,220.4 66.2,219.9 66.2,231.3 61.7,232.7 62.1,221.4 62.8,221.1 63.2,222.1 
			64.3,222.2 64,229.7 64.1,229.7 64.1,223 63.5,223.2 63.2,222.1 64.3,222.2 		"/>
		<polygon points="125.2,228.8 125,227.7 130.8,226.3 130.4,233.9 124.1,235.3 124.1,227.9 125,227.7 125.2,228.8 126.3,228.8 
			126.3,232.6 128.3,232.1 128.5,229.1 125.5,229.8 125.2,228.8 126.3,228.8 		"/>
		<polygon points="115.1,231.2 114.8,230.2 120,228.9 120,236.2 114,237.5 114,230.4 114.8,230.2 115.1,231.2 116.2,231.2 
			116.2,234.8 117.8,234.4 117.8,231.7 115.4,232.3 115.1,231.2 116.2,231.2 		"/>
		<polygon points="105.6,233.6 105.4,232.5 110.2,231.3 110.2,238.3 104.5,239.5 104.5,232.7 105.4,232.5 105.6,233.6 106.7,233.6 
			106.7,236.8 108,236.5 108,234.1 105.9,234.6 105.6,233.6 106.7,233.6 		"/>
		<polygon points="96.8,235.7 96.6,234.6 101.1,233.5 101.1,240.3 95.7,241.4 95.7,234.8 96.6,234.6 96.8,235.7 97.9,235.7 
			97.9,238.7 98.9,238.5 98.9,236.3 97.1,236.8 96.8,235.7 97.9,235.7 		"/>
		<polygon points="88.9,237.6 88.6,236.6 92.9,235.5 92.9,242 87.8,243.1 87.8,236.8 88.6,236.6 88.9,237.6 90,237.6 90,240.4 
			90.8,240.2 90.8,238.3 89.1,238.7 88.9,237.6 90,237.6 		"/>
		<polygon points="81.2,239.5 81,238.4 83.8,237.7 85.1,237.4 85.1,243.7 80.1,244.8 80.1,238.6 81,238.4 81.2,239.5 82.3,239.5 
			82.3,242 82.9,241.9 82.9,240.2 81.5,240.6 81.2,239.5 82.3,239.5 		"/>
		<polygon points="74.2,241.2 73.9,240.1 76.7,239.5 78.1,239.1 78.1,245.2 73.1,246.3 73.1,240.4 73.9,240.1 74.2,241.2 
			75.3,241.2 75.3,243.6 75.9,243.4 75.9,241.9 74.4,242.3 74.2,241.2 75.3,241.2 		"/>
		<polygon points="67.7,242.8 67.5,241.7 69.7,241.2 71.1,240.8 71.1,246.7 66.6,247.6 66.6,241.9 67.5,241.7 67.7,242.8 
			68.8,242.8 68.8,244.9 68.9,244.9 68.9,243.6 68,243.8 67.7,242.8 68.8,242.8 		"/>
		<polygon points="62.1,244.1 61.9,243.1 64.2,242.5 65.6,242.2 65.6,247.9 61,248.9 61,243.3 61.9,243.1 62.1,244.1 63.2,244.1 
			63.2,246.1 63.4,246.1 63.4,245 62.4,245.2 62.1,244.1 63.2,244.1 		"/>
		<path d="M136.4,306.9h-1.1l0.1-33.3v0c0.2-7.9,2.4-12.7,5.3-15.5c2.9-2.9,6.4-3.7,8.9-4.1c0.5-0.1,1.1-0.1,1.6-0.1
			c3,0,6.7,1.2,9.9,3.6c3.2,2.4,5.8,6.1,6.4,11.1l0,0.1l-0.3,38.7l-32,0.8v-1.1L136.4,306.9l0-1.1l28.7-0.7l0.3-36.5l1.1,0l-1.1,0.1
			c-0.5-4.3-2.7-7.4-5.5-9.6c-2.8-2.1-6.2-3.2-8.6-3.2c-0.5,0-0.9,0-1.2,0.1c-2.4,0.4-5.4,1.2-7.8,3.6s-4.4,6.5-4.6,14l-1.1,0h1.1
			l-0.1,33.3H136.4l0-1.1L136.4,306.9z"/>
		<path d="M118.4,273.6l-1.1,0c0.2-5.3,0.9-9.4,1.9-12.2c0.5-1.4,1.2-2.5,1.9-3.3c0.7-0.8,1.7-1.4,2.7-1.4c1,0,1.9,0.5,2.6,1.3
			c1.1,1.1,1.9,2.9,2.6,5.3s1.2,5.5,1.4,9.2v0l-0.2,37.8l-13-1.3v-35.4v0L118.4,273.6h1.1V307l8.7,0.8l0.1-35.3l1.1,0l-1.1,0.1
			c-0.3-4.9-1.1-8.4-2-10.7c-0.5-1.1-1-1.9-1.4-2.4c-0.5-0.5-0.8-0.6-1-0.6c-0.3,0-0.6,0.1-1.1,0.6c-0.7,0.8-1.5,2.4-2.1,4.7
			c-0.6,2.4-1,5.5-1.1,9.4L118.4,273.6h1.1H118.4z"/>
		<path d="M96.5,275.7h-1.1c0-5,0.6-8.9,1.5-11.5c0.4-1.3,1-2.4,1.6-3.2c0.6-0.8,1.5-1.4,2.5-1.4c0.9,0,1.8,0.5,2.4,1.3
			c0.9,1.1,1.6,2.8,2.1,5.1c0.5,2.3,0.8,5.3,0.9,8.9v33l-10.9-1v-31.1L96.5,275.7l1.1,0v29.1l6.5,0.6v-30.6c0-4.7-0.6-8.1-1.3-10.3
			c-0.4-1.1-0.8-1.9-1.1-2.3c-0.4-0.4-0.6-0.5-0.7-0.5c-0.1,0-0.4,0.1-0.8,0.5c-0.6,0.7-1.3,2.2-1.8,4.5c-0.5,2.2-0.8,5.2-0.8,8.9
			H96.5z"/>
		<path d="M78.2,277.5l-1.1,0c0.1-4.9,0.6-8.6,1.3-11.1c0.3-1.3,0.7-2.3,1.2-3c0.3-0.4,0.5-0.7,0.9-1c0.3-0.3,0.8-0.4,1.3-0.4
			c0.5,0,0.9,0.2,1.2,0.4c0.6,0.4,1,1.1,1.3,1.9c1.1,2.4,1.8,6.5,1.9,12.6v0V306l-9.2-0.9v-27.6v0L78.2,277.5h1.1v25.6l4.8,0.5
			v-26.7h1.1l-1.1,0c-0.1-4.5-0.6-7.9-1.2-10c-0.3-1.1-0.6-1.9-0.9-2.3l-0.3-0.4l0,0l0,0l0,0h0l0,0l0,0l0.1-0.2v0.2l-0.1,0l0.1-0.2
			v0.2V264l0.1,0.2l-0.1,0V264l0.1,0.2l0,0c-0.1,0.1-0.4,0.4-0.7,1c-0.9,1.9-1.7,6.1-1.8,12.4L78.2,277.5h1.1H78.2z"/>
		<path d="M61.7,279.1l-1.1-0.1c0.4-4.7,1-8.2,1.8-10.6c0.4-1.2,0.8-2.1,1.3-2.8c0.2-0.4,0.5-0.6,0.8-0.9c0.3-0.2,0.8-0.4,1.2-0.4
			c0.4,0,0.9,0.2,1.2,0.4c0.6,0.4,0.9,1,1.2,1.7c0.9,2.1,1.4,5.8,1.4,11.1c0,0.3,0,0.7,0,1l-1.1,0h1.1v25.9l-8.6-0.7l-0.3-24.6v0
			L61.7,279.1l1.1,0l0.3,22.5l4.3,0.4v-23.5v0c0-0.3,0-0.7,0-1c0-3.9-0.3-6.9-0.8-8.8c-0.2-1-0.5-1.6-0.7-2l-0.2-0.3h0l0.1-0.2v0.2
			l-0.1,0l0.1-0.2v0.2v-0.3l0.1,0.2l-0.1,0v-0.3l0.1,0.2l0,0l0,0h0l0,0l0,0c0,0-0.3,0.3-0.6,0.8c-0.9,1.7-1.9,5.7-2.4,12L61.7,279.1
			l1.1,0L61.7,279.1z"/>
		<path d="M186.9,289.4h-1.1v-18.6v0c0.1-4.6,0.9-8.1,2-10.6c0.6-1.2,1.2-2.2,2-2.9c0.8-0.7,1.7-1.1,2.7-1.1c1,0,1.9,0.4,2.7,1.1
			c1.2,1,2.2,2.7,2.9,4.9s1.3,5.1,1.6,8.5v0v19.4l-14,0.4v-1.1L186.9,289.4l0-1.1l10.8-0.3v-17.2h1.1l-1.1,0.1
			c-0.3-4.4-1.2-7.7-2.2-9.8c-0.5-1-1.1-1.8-1.6-2.2c-0.5-0.4-0.9-0.6-1.3-0.6c-0.4,0-0.8,0.1-1.3,0.6c-0.7,0.6-1.6,2-2.1,4
			c-0.6,2-1,4.6-1.1,8l-1.1,0h1.1v18.6L186.9,289.4l0-1.1L186.9,289.4z"/>
		<path d="M171.2,291.5h-1.1v-17.6v0c0.1-4.4,0.8-7.7,1.8-10c0.5-1.2,1.1-2.1,1.8-2.8c0.7-0.7,1.6-1.1,2.6-1.1
			c0.9,0,1.8,0.4,2.6,1.1c1.1,1,2,2.6,2.7,4.7c0.7,2.1,1.2,4.8,1.4,8.1v0v18.4l-12.8,0.4v-1.1L171.2,291.5l0-1.1l9.6-0.3v-16.3h1.1
			l-1.1,0.1c-0.3-4.2-1-7.3-2-9.2c-0.5-1-1-1.6-1.4-2c-0.4-0.4-0.8-0.5-1.1-0.5s-0.6,0.1-1.1,0.5c-0.6,0.6-1.4,1.8-1.9,3.7
			c-0.6,1.9-0.9,4.4-1,7.5l-1.1,0h1.1v17.6L171.2,291.5l0-1.1L171.2,291.5z"/>
		<path d="M408.3,301.2l0,1.1l-40.5,0.4l0.2-1.3c1.2-7.4,1.7-18.3,4.2-27.4c1.3-4.6,3-8.8,5.7-11.9c2.7-3.1,6.4-5.1,11.1-5.1h0l0,0
			c4.8,0,8.5,2,11.2,5.2c4,4.7,5.9,11.7,7,19c1.1,7.2,1.5,14.6,2.2,20l0.2,1.2l-1.2,0L408.3,301.2l-1.1,0.1
			c-0.9-7.3-1.3-18-3.6-26.8c-1.1-4.4-2.8-8.3-5.1-11c-2.4-2.7-5.3-4.3-9.5-4.4l0-1.1v1.1c-4.2,0-7.1,1.6-9.5,4.3
			c-3.5,4.1-5.5,10.8-6.7,17.9c-1.2,7.1-1.7,14.6-2.6,20.3l-1.1-0.2l0-1.1l39.2-0.4L408.3,301.2l-1.1,0.1L408.3,301.2z"/>
		<polygon points="326.6,258.7 326.6,257.6 353.3,257.6 353.3,278.2 325.5,278.2 325.5,257.6 326.6,257.6 326.6,258.7 327.7,258.7 
			327.7,276 351.1,276 351.1,259.8 326.6,259.8 326.6,258.7 327.7,258.7 		"/>
		<polygon points="286.2,258.7 286.2,257.6 314.6,257.6 314.6,278.2 285.1,278.2 285.1,257.6 286.2,257.6 286.2,258.7 287.3,258.7 
			287.3,276 312.4,276 312.4,259.8 286.2,259.8 286.2,258.7 287.3,258.7 		"/>
		<polygon points="244.4,257.7 244.4,256.6 275.9,256.6 275.9,279.1 243.3,279.1 243.3,256.6 244.4,256.6 244.4,257.7 245.5,257.7 
			245.5,277 273.7,277 273.7,258.8 244.4,258.8 244.4,257.7 245.5,257.7 		"/>
		<path d="M185.3,143.9l-1.1-0.1c0.2-3.1,0.7-5.4,1.5-7.1c0.4-0.8,0.8-1.5,1.4-2c0.5-0.5,1.2-0.8,2-0.8c0.6,0,1.2,0.2,1.6,0.6
			c0.7,0.6,1.2,1.4,1.5,2.4s0.6,2.3,0.7,3.8v0V153l-8.7,3.9v-13v0L185.3,143.9h1.1v9.6l4.3-1.9v-10.7h1.1l-1.1,0.1
			c-0.1-1.8-0.4-3.1-0.8-3.9c-0.2-0.4-0.4-0.6-0.6-0.7l-0.3-0.1c-0.1,0-0.2,0-0.5,0.3c-0.8,0.7-1.9,3.2-2.2,7.6L185.3,143.9h1.1
			H185.3z"/>
		<path d="M170.5,150.9l-1.1-0.1c0.1-2.8,0.6-5,1.3-6.6c0.4-0.8,0.8-1.4,1.2-1.9c0.5-0.5,1.1-0.8,1.9-0.8c0.6,0,1.1,0.2,1.6,0.6
			c0.6,0.5,1.1,1.3,1.4,2.3c0.3,1,0.6,2.2,0.7,3.6v0.1v11.8l-8.1,3.6v-12.6v0L170.5,150.9h1.1v9.2l3.7-1.6v-10.4h1.1l-1.1,0.1
			c-0.1-1.8-0.5-3-0.9-3.8c-0.2-0.4-0.4-0.6-0.5-0.7l-0.1-0.1l-0.3,0.2c-0.3,0.3-0.8,1.1-1.2,2.3c-0.4,1.2-0.6,2.8-0.7,4.7
			L170.5,150.9h1.1H170.5z"/>
		<path d="M157.9,156.8l-1.1-0.1c0.1-2.6,0.6-4.7,1.2-6.2c0.3-0.8,0.7-1.4,1.2-1.8c0.5-0.5,1.1-0.8,1.8-0.8c0.6,0,1.1,0.2,1.5,0.6
			c0.6,0.5,1,1.3,1.3,2.2c0.3,0.9,0.5,2.1,0.6,3.5v0v11.5l-7.6,3.4v-12.4v0L157.9,156.8h1.1v8.9l3.2-1.4v-10.1h1.1l-1.1,0.1
			c-0.1-1.7-0.4-2.9-0.8-3.6c-0.2-0.3-0.3-0.5-0.4-0.6l-0.1-0.1l0,0v0.1h0l0,0v0.1v0l0,0h0v0l0,0c0,0-0.2,0.1-0.4,0.3
			c-0.6,0.8-1.5,3-1.6,6.5L157.9,156.8h1.1H157.9z"/>
		<path d="M146.1,162.3l-1.1-0.1c0.1-2.6,0.6-4.6,1.1-6.1c0.3-0.7,0.6-1.3,1.1-1.7c0.4-0.4,1-0.8,1.7-0.8c0.6,0,1.1,0.3,1.5,0.6
			c0.6,0.5,1,1.3,1.3,2.2c0.3,0.9,0.5,2,0.6,3.4v0v11.2l-7.3,3.3l-0.1-12v0L146.1,162.3l1.1,0l0.1,8.6l2.9-1.3v-9.8h1.1l-1.1,0.1
			c-0.1-1.6-0.4-2.7-0.7-3.4c-0.2-0.3-0.3-0.5-0.4-0.6l-0.1-0.1l0-0.1v0.1h0l0-0.1v0.1v-0.1l0,0.1h0v-0.1l0,0.1l-0.1,0
			c-0.2,0.1-0.6,0.7-1,1.8c-0.4,1.1-0.6,2.6-0.7,4.7L146.1,162.3l1.1,0L146.1,162.3z"/>
		<polygon points="185.1,216.6 184.8,215.5 192.5,213.6 192.4,234 184,235.6 184,215.7 184.8,215.5 185.1,216.6 186.2,216.6 
			186.2,233 190.2,232.2 190.3,216.4 185.3,217.6 185.1,216.6 186.2,216.6 		"/>
		<polygon points="170.8,220.2 170.5,219.1 177.1,217.5 177.1,236.9 169.7,238.3 169.7,219.3 170.5,219.1 170.8,220.2 171.9,220.2 
			171.9,235.6 174.9,235.1 174.9,220.3 171,221.3 170.8,220.2 171.9,220.2 		"/>
		<polygon points="157.7,223.4 157.5,222.4 164,220.8 164,236.2 156.6,236.1 156.6,222.6 157.5,222.4 157.7,223.4 158.8,223.4 
			158.8,233.9 161.8,234 161.8,223.6 158,224.5 157.7,223.4 158.8,223.4 		"/>
		<polygon points="146.2,226.4 146,225.3 151.9,223.8 151.9,235.9 145.3,235.7 145.1,225.5 146,225.3 146.2,226.4 147.3,226.3 
			147.4,233.6 149.7,233.7 149.7,226.6 146.5,227.4 146.2,226.4 147.3,226.3 		"/>
		<polygon points="185.1,176.9 184.7,175.9 192.5,173 192.4,193.3 184,195.8 184,176.1 184.7,175.9 185.1,176.9 186.2,176.9 
			186.2,192.8 190.2,191.6 190.3,176.1 185.4,177.9 185.1,176.9 186.2,176.9 		"/>
		<polygon points="170.9,182.1 170.5,181 177.2,178.6 177.2,197.8 169.8,200.1 169.8,181.3 170.5,181 170.9,182.1 171.9,182.1 
			171.9,197.1 175,196.2 175,181.7 171.2,183.1 170.9,182.1 171.9,182.1 		"/>
		<polygon points="158.5,186.6 158.1,185.6 164.2,183.3 164.2,201.8 157.4,203.8 157.4,185.8 158.1,185.6 158.5,186.6 159.6,186.6 
			159.6,200.9 162,200.1 162,186.5 158.8,187.6 158.5,186.6 159.6,186.6 		"/>
		<polygon points="146.3,191 145.9,190 151.8,187.9 151.8,205.5 145.1,207.5 145.2,190.3 145.9,190 146.3,191 147.4,191 
			147.3,204.5 149.6,203.9 149.6,191 146.7,192 146.3,191 147.4,191 		"/>
		<polygon points="243.3,103.2 243.4,102.1 357.6,118.4 358,152.4 242.2,139.4 242.2,101.9 243.4,102.1 243.3,103.2 244.4,103.2 
			244.4,137.5 355.7,149.9 355.4,120.3 243.1,104.3 243.3,103.2 244.4,103.2 		"/>
		<path d="M345.1,190.5l0.1-1.1l11.2,0.8l0.1-15.5l1.1,0l-1.1,0.2c-0.5-3.4-2.6-5.4-4.9-5.7l-0.5,0c-1,0-2.2,0.4-3.2,1.2
			s-1.7,2-1.9,3.7l-1.1-0.1l1.1,0l0.2,16.6L345.1,190.5l0.1-1.1L345.1,190.5l-1.1,0l-0.2-16.7l0-0.1c0.3-2.2,1.3-4,2.6-5.1
			c1.4-1.1,3-1.7,4.6-1.7c0.3,0,0.5,0,0.8,0.1c3.4,0.4,6.2,3.4,6.8,7.6l0,0.1l-0.1,17.9l-14.5-1.1l0-1H345.1z"/>
		<path d="M330.4,189.6l0.1-1.1l11.2,0.9l0.1-15.9l1.1,0l-1.1,0.1c-0.5-3.5-2.6-5.6-4.9-5.9l-0.5,0c-1,0-2.2,0.4-3.2,1.2
			s-1.7,2-1.9,3.8l-1.1-0.1l1.1,0l0.2,17L330.4,189.6l0.1-1.1L330.4,189.6l-1.1,0l-0.2-17l0-0.1c0.3-2.3,1.3-4.1,2.6-5.2
			c1.4-1.2,3-1.8,4.6-1.8c0.3,0,0.5,0,0.8,0.1c3.4,0.4,6.2,3.4,6.8,7.7l0,0.1l-0.1,18.3l-14.5-1.1l0-1L330.4,189.6z"/>
		<path d="M313,188.1l0.1-1.1l11.5,0.9l0.1-15.8l1.1,0l-1.1,0.1c-0.5-3.5-2.7-5.5-5-5.8l-0.6,0c-1.1,0-2.3,0.4-3.3,1.2
			c-1,0.8-1.7,2-1.9,3.8l-1.1-0.1l1.1,0l0.2,16.9L313,188.1l0.1-1.1L313,188.1l-1.1,0l-0.2-17l0-0.1c0.3-2.3,1.3-4.1,2.7-5.2
			c1.4-1.2,3.1-1.7,4.7-1.7c0.3,0,0.6,0,0.8,0.1c3.4,0.4,6.3,3.4,6.9,7.7l0,0.1l-0.1,18.2l-14.8-1.1l0-1L313,188.1z"/>
		<path d="M296.9,187.1l0.1-1.1l12,0.9l0.1-16.4l1.1,0l-1.1,0.2c-0.5-3.6-2.8-5.7-5.3-6.1l-0.6,0c-1.1,0-2.4,0.4-3.4,1.3
			s-1.8,2.1-2,3.9l-1.1-0.1l1.1,0l0.2,17.4H296.9l0.1-1.1L296.9,187.1l-1.1,0l-0.2-17.5l0-0.1c0.3-2.3,1.4-4.2,2.8-5.4
			s3.2-1.8,4.8-1.8c0.3,0,0.6,0,0.9,0.1c3.5,0.5,6.5,3.5,7.2,7.9l0,0.1l-0.1,18.8l-15.3-1.1l0-1L296.9,187.1z"/>
		<path d="M281.2,186l0.1-1.1l12.2,0.9l0.1-16.4l1.1,0l-1.1,0.2c-0.5-3.6-2.9-5.7-5.4-6.1l-0.6,0c-1.2,0-2.5,0.4-3.5,1.3
			s-1.8,2.1-2,3.9l-1.1-0.1l1.1,0l0.2,17.5L281.2,186l0.1-1.1L281.2,186l-1.1,0l-0.2-17.5l0-0.1c0.3-2.3,1.4-4.2,2.8-5.4
			c1.5-1.2,3.2-1.8,4.9-1.8c0.3,0,0.6,0,0.9,0.1c3.6,0.5,6.6,3.5,7.3,7.9l0,0.1l-0.1,18.8l-15.5-1.1l0-1L281.2,186z"/>
		<path d="M261.6,184.4l0.1-1.1l12.9,0.9l0.1-16.4l1.1,0l-1.1,0.2c-0.6-3.6-3-5.7-5.7-6.1l-0.6,0c-1.3,0-2.6,0.4-3.7,1.3
			s-1.9,2.1-2.1,3.9l-1.1-0.1l1.1,0l0.2,17.5L261.6,184.4l0.1-1.1L261.6,184.4l-1.1,0l-0.2-17.5l0-0.1c0.3-2.4,1.5-4.2,3-5.4
			c1.5-1.2,3.3-1.7,5.1-1.8c0.3,0,0.6,0,0.9,0.1c3.7,0.4,6.9,3.5,7.6,7.9l0,0.1l-0.1,18.8l-16.2-1.2l0-1L261.6,184.4z"/>
		<path d="M244.1,183.3H243v-16.5l0-0.1c0.9-3,2-5.1,3.4-6.6c1.4-1.4,3.1-2.1,4.7-2.1c2.5,0,4.8,1.4,6.5,3.3
			c1.7,1.9,2.8,4.2,2.9,6.5l0,0.7l-1.1-0.1l1.1,0l-0.1,16.8l-17.4-0.8v-1.1L244.1,183.3l0.1-1.1l14.1,0.6l0.1-14.6l0-0.1l0-0.4
			c0-1.5-0.9-3.5-2.3-5c-1.4-1.6-3.3-2.6-4.9-2.6c-1.1,0-2.1,0.4-3.2,1.4c-1.1,1.1-2.1,2.9-2.9,5.6l-1.1-0.3h1.1v16.3L244.1,183.3
			l0.1-1.1L244.1,183.3z"/>
		<path d="M345.4,232.3l0-1.1l11.2,0.5l0.1-15.6l1.1,0l-1.1,0.2c-0.5-3.4-2.6-5.3-4.9-5.5l-0.4,0c-1.1,0-2.3,0.4-3.3,1.2
			c-1,0.8-1.7,2.1-2,3.8l-1.1-0.1l1.1,0l0.2,16.6L345.4,232.3l0-1.1L345.4,232.3l-1.1,0l-0.2-16.7l0-0.1c0.3-2.3,1.3-4.1,2.7-5.3
			c1.4-1.2,3.1-1.8,4.7-1.8l0.6,0c3.4,0.3,6.3,3.2,6.8,7.4l0,0.1l-0.1,17.9l-14.5-0.6l0-1L345.4,232.3z"/>
		<path d="M330.7,231.8l0-1.1l11.2,0.5l0.1-15.9l1.1,0l-1.1,0.1c-0.5-3.5-2.6-5.4-4.9-5.7l-0.4,0c-1,0-2.3,0.4-3.3,1.3
			c-1,0.9-1.8,2.1-2,3.9l-1.1-0.1l1.1,0l0.2,17L330.7,231.8l0-1.1L330.7,231.8l-1.1,0l-0.2-17l0-0.1c0.3-2.3,1.3-4.2,2.7-5.4
			c1.4-1.2,3.1-1.8,4.7-1.8l0.6,0c3.4,0.4,6.3,3.3,6.8,7.6l0,0.1l-0.1,18.3l-14.5-0.7l0-1L330.7,231.8z"/>
		<path d="M313.3,230.9l0-1.1l11.5,0.5l0.1-15.9l1.1,0l-1.1,0.2c-0.5-3.5-2.7-5.4-5-5.6l-0.4,0c-1.1,0-2.3,0.4-3.3,1.3
			s-1.8,2.1-2,3.9l-1.1-0.1l1.1,0l0.2,16.9L313.3,230.9l0-1.1L313.3,230.9l-1.1,0l-0.2-16.9l0-0.1c0.3-2.3,1.3-4.1,2.8-5.3
			c1.4-1.2,3.1-1.8,4.8-1.8l0.6,0c3.5,0.4,6.4,3.2,7,7.5l0,0.1l-0.1,18.2l-14.8-0.6l0-1L313.3,230.9z"/>
		<path d="M297.3,230.3l0-1.1l12,0.5l0.1-16.4l1.1,0l-1.1,0.2c-0.5-3.6-2.8-5.6-5.3-5.9l-0.4,0c-1.1,0-2.5,0.4-3.5,1.3
			c-1,0.9-1.9,2.2-2.1,4.1l-1.1-0.1l1.1,0l0.2,17.4L297.3,230.3l0-1.1L297.3,230.3l-1.1,0l-0.2-17.5l0-0.1c0.3-2.4,1.4-4.3,2.9-5.5
			s3.2-1.8,4.9-1.8l0.7,0c3.6,0.4,6.6,3.3,7.2,7.7l0,0.1l-0.1,18.8l-15.3-0.7l0-1L297.3,230.3z"/>
		<path d="M281.5,229.6l0-1.1l12.2,0.5l0.1-16.4l1.1,0l-1.1,0.2c-0.5-3.6-2.8-5.6-5.4-5.9l-0.5,0c-1.2,0-2.5,0.4-3.6,1.3
			c-1.1,0.9-1.9,2.2-2.1,4.1l-1.1-0.1l1.1,0l0.2,17.4L281.5,229.6l0-1.1L281.5,229.6l-1.1,0l-0.2-17.5l0-0.1
			c0.3-2.4,1.4-4.3,2.9-5.5s3.3-1.8,5-1.8l0.7,0c3.6,0.4,6.7,3.3,7.3,7.7l0,0.1l-0.1,18.8l-15.5-0.7l0-1L281.5,229.6z"/>
		<path d="M261.9,228.7l0-1.1l12.9,0.5l0.1-16.4l1.1,0l-1.1,0.2c-0.6-3.6-3-5.6-5.7-5.9l-0.5,0c-1.3,0-2.7,0.4-3.8,1.3
			c-1.1,0.9-2,2.2-2.2,4.1l-1.1-0.1l1.1,0l0.2,17.4L261.9,228.7l0-1.1L261.9,228.7l-1.1,0l-0.2-17.5l0-0.1c0.3-2.4,1.5-4.3,3-5.5
			c1.5-1.2,3.4-1.8,5.2-1.8l0.7,0c3.7,0.3,7,3.3,7.6,7.7l0,0.1l-0.2,18.8l-16.2-0.7l0-1L261.9,228.7z"/>
		<path d="M244.4,228.1h-1.1v-16.5l0-0.1c0.9-3.1,2.1-5.3,3.5-6.7c1.4-1.5,3.1-2.1,4.8-2.1c2.5,0,4.7,1.4,6.4,3.2
			c1.7,1.8,2.8,4.1,2.8,6.4l0,0.7l-1.1-0.1l1.1,0l-0.1,16.8l-17.4-0.3v-1.1L244.4,228.1l0-1.1l14.1,0.2l0.1-14.6l0-0.1l0-0.4
			c0-1.5-0.9-3.4-2.2-4.9c-1.4-1.5-3.2-2.5-4.8-2.5c-1.1,0-2.2,0.4-3.2,1.5s-2.1,2.9-2.9,5.8l-1.1-0.3h1.1V228L244.4,228.1l0-1.1
			L244.4,228.1z"/>
		<polygon points="167.5,248.3 166.4,248.3 166.4,237.3 166.3,237.3 130.1,236.2 61.7,249.8 61.7,257.9 131.6,246.5 167.5,247.2 
			167.5,248.3 166.4,248.3 167.5,248.3 167.5,249.4 131.7,248.7 59.5,260.5 59.5,248 129.9,234 166.6,235.1 167.7,235.3 
			168.6,235.5 168.6,249.4 167.5,249.4 		"/>
	</g>
	<g>
		<path class="st0" d="M61.8,400.6l2-8.5c-2.3,3.4-4.9,5.9-7.6,7.5c-2.7,1.6-5.8,2.4-9.2,2.4c-5.8,0-10.3-2-13.4-5.9
			c-3.1-3.9-4.5-9.2-4.2-15.9c0.4-8.9,3.1-16.4,8.1-22.5c5-6.1,11-9.1,17.9-9.1c4,0,7.2,0.8,9.6,2.4c2.3,1.6,4.1,4.2,5.2,7.8
			l6.4-26.4l13.7,0l-15.9,68.3L61.8,400.6z M57.7,360.1c-3.7,0-6.9,1.9-9.7,5.6c-2.8,3.8-4.3,8.3-4.5,13.6c-0.2,3.8,0.5,6.6,2.1,8.6
			c1.6,2,4,2.9,7.2,2.9c4,0,7.3-1.8,10-5.5s4.1-8.4,4.4-14.4c0.2-3.5-0.5-6.3-2.1-8.1C63.3,361,60.9,360.1,57.7,360.1z"/>
		<path class="st0" d="M146.4,350.1l-11.9,50.6l-12.7,0l1.9-8.1c-3.1,3.3-6.1,5.7-9,7.2s-6,2.2-9.5,2.2c-4.8,0-8.5-1.3-11.2-3.8
			s-3.9-5.8-3.7-10c0.1-1,0.2-2,0.3-3c0.2-1,0.3-2,0.6-2.9l7.6-32.2l14.2,0l-7.6,31.8c-0.2,0.6-0.3,1.1-0.4,1.7
			c-0.1,0.5-0.2,1.1-0.2,1.5c-0.1,1.9,0.4,3.3,1.5,4.3c1.1,1,2.7,1.5,4.8,1.5c3.6,0,6.7-1.2,9.3-3.7c2.7-2.5,4.5-5.9,5.5-10.2
			l6.5-27L146.4,350.1z"/>
		<polygon class="st0" points="147.2,400.8 163.2,332.5 177.1,332.5 168.6,368.5 188.1,350.2 203.9,350.2 182.9,369.9 193.2,400.8 
			179.1,400.8 172.2,379.1 164.4,386.5 160.8,400.8 		"/>
		<polygon class="st0" points="341.2,344.8 344.1,332.8 357.9,332.9 355.1,344.9 		"/>
		<path class="st0" d="M317.3,420.9l2.1-10.4h0.6c2.3,0,3.9-0.3,4.7-1c0.9-0.7,1.6-2.3,2.3-4.6l13-54.3l13.8,0l-12.9,53.3
			c-1.6,6.8-3.7,11.4-6.5,13.8c-2.7,2.4-7,3.6-13,3.6c-0.5,0-1,0-1.7-0.1C319,421.1,318.2,421,317.3,420.9"/>
		<polygon class="st0" points="367.7,344.8 370.5,332.9 384.5,332.9 381.8,344.8 		"/>
		<polygon class="st0" points="354.6,401.1 366.4,350.5 380.3,350.6 368.5,401.1 		"/>
		<path class="st0" d="M380.8,401.2l11.8-50.6l12.8,0l-1.9,7.8c3-3.3,6-5.7,8.9-7.1c2.9-1.5,6.1-2.2,9.6-2.2c4.7,0,8.4,1.3,11.1,3.8
			c2.7,2.5,3.9,5.9,3.7,10.1c0,1-0.1,2-0.3,2.9c-0.1,1-0.3,2-0.6,3l-7.7,32.4l-14,0l7.5-32.1c0.1-0.6,0.3-1.3,0.4-1.8
			c0.1-0.6,0.1-1,0.2-1.4c0.1-1.9-0.4-3.3-1.5-4.2c-1.1-1-2.7-1.5-4.9-1.5c-3.6,0-6.7,1.2-9.3,3.6c-2.7,2.5-4.5,5.8-5.5,10.1
			l-6.4,27.3L380.8,401.2z"/>
		<polygon class="st0" points="454,344.9 456.8,333 470.7,333.1 468,344.9 		"/>
		<polygon class="st0" points="440.9,401.3 452.6,350.7 466.5,350.7 454.8,401.3 		"/>
		<path class="st0" d="M251.5,355.9c-0.8,3.2-2,5.8-3.4,7.9c-1.5,2.1-3.4,3.9-5.7,5.5c-4.1,2.7-7.9,3.6-11.7,2.9
			c-3.7-0.7-6.7-3-8.9-6.8c-2.9-4.9-3.6-9.5-2.2-13.8c1.4-4.3,5.3-9.1,11.6-14.2c0.6-0.5,1.4-1.2,2.5-2c5-4,6.8-7.3,5.3-9.8
			c-0.7-1.2-1.9-1.7-3.5-1.6c-1.6,0.1-3.5,0.8-5.5,2.1c-2,1.3-3.4,2.7-4,4.2s-0.7,3.1,0,4.9l-11.3,7.4c-1.9-5-2-9.6-0.2-13.8
			c1.8-4.2,5.5-8.1,11.1-11.8c5.6-3.6,10.6-5.4,15-5.3c4.4,0.1,7.8,2.1,10,5.9c0.2,0.4,0.5,0.8,0.7,1.3s0.4,0.9,0.6,1.4l9.5,25.8
			c0.3,0.6,0.5,1.1,0.7,1.6c0.2,0.5,0.4,0.9,0.7,1.3c0.4,0.7,0.9,1.3,1.3,1.6c0.5,0.4,1,0.6,1.7,0.7l0.6,1.1l-12.1,8L251.5,355.9z
			 M243.9,337.9c-1.4,1.7-3.5,3.8-6.2,6.4c-5.2,4.9-6.9,9.1-4.9,12.5c0.8,1.3,1.8,2,3.2,2.2c1.4,0.2,2.9-0.3,4.5-1.3
			c2.5-1.6,4.3-3.8,5.3-6.4c1-2.7,1.1-5.3,0.2-7.8L243.9,337.9z"/>
		<path class="st0" d="M266.3,405.7l14.1,0c0,1.9,0.6,3.3,1.8,4.3c1.3,0.9,3.2,1.4,5.9,1.4c4.2,0,7.3-1.1,9.3-3.4
			c2-2.2,3.8-7.2,5.5-14.9c-2.1,2.8-4.4,4.8-6.9,6.2c-2.5,1.3-5.3,2-8.4,2c-5.7,0-10.2-2-13.3-5.8c-3.1-3.9-4.5-9.2-4.2-15.9
			c0.4-8.8,3.2-16.1,8.2-21.8c5-5.7,11.2-8.5,18.5-8.5c4.1,0,7.4,0.9,9.7,2.7c2.3,1.8,3.9,4.7,4.9,8.6l2.3-10.1l13.4,0l-12,50.4
			c-1.7,7.3-4.7,12.6-9.1,15.8c-4.4,3.2-10.7,4.8-19,4.7c-6.8,0-11.9-1.3-15.4-4C267.9,414.8,266.2,410.9,266.3,405.7 M298.5,360.7
			c-3.9,0-7.2,1.7-9.9,5.2c-2.7,3.5-4.2,8-4.4,13.4c-0.2,3.4,0.6,6.1,2.2,7.9c1.6,1.9,4,2.8,7.2,2.8c3.9,0,7.2-1.7,9.7-5.1
			c2.5-3.4,3.9-7.9,4.2-13.7c0.2-3.5-0.5-6.1-2-7.9C303.9,361.6,301.6,360.7,298.5,360.7z"/>
	</g>
	<polygon points="359.4,417.8 354.4,417.8 353.3,423.5 350.6,423.5 353.3,410.8 355.9,410.8 354.9,415.7 359.8,415.7 360.8,410.8 
		363.4,410.8 360.8,423.5 358.2,423.5 	"/>
	<path d="M377,418.5c0,0.4,0.1,0.8,0.2,1.2c0.1,0.4,0.3,0.7,0.6,1c0.3,0.3,0.6,0.5,0.9,0.7s0.7,0.2,1.2,0.2c0.7,0,1.4-0.2,2-0.7
		c0.3-0.2,0.6-0.5,0.9-0.9c0.3-0.4,0.5-0.8,0.7-1.2c0.4-0.9,0.6-1.9,0.6-2.8c0-0.5-0.1-0.9-0.2-1.3c-0.1-0.4-0.3-0.7-0.6-1
		c-0.3-0.3-0.6-0.5-0.9-0.6c-0.3-0.1-0.7-0.2-1.1-0.2c-0.6,0-1.2,0.1-1.7,0.5c-0.5,0.3-1,0.8-1.4,1.3s-0.7,1.2-0.9,1.9
		C377.1,417.1,377,417.8,377,418.5 M374.4,418.5c0-0.4,0-0.8,0.1-1.1c0-0.4,0.1-0.8,0.3-1.2c0.1-0.6,0.3-1.1,0.6-1.6
		c0.2-0.5,0.5-0.9,0.8-1.3c0.3-0.4,0.6-0.8,1-1.1c0.4-0.3,0.8-0.6,1.3-0.9c0.5-0.2,1-0.4,1.5-0.5s1.1-0.2,1.7-0.2
		c0.8,0,1.5,0.1,2.1,0.4s1.2,0.6,1.7,1.1c0.5,0.5,0.9,1,1.1,1.7c0.2,0.6,0.4,1.4,0.4,2.2c0,0.7-0.1,1.3-0.2,2s-0.4,1.3-0.7,1.9
		c-0.3,0.6-0.7,1.2-1.1,1.7c-0.4,0.5-0.9,0.9-1.5,1.2c-0.5,0.3-1.1,0.6-1.7,0.8c-0.6,0.2-1.3,0.3-1.9,0.3c-0.6,0-1.1-0.1-1.6-0.2
		s-0.9-0.3-1.3-0.6c-0.4-0.3-0.8-0.6-1-0.9c-0.3-0.3-0.5-0.7-0.7-1.1c-0.2-0.4-0.3-0.8-0.4-1.2C374.5,419.3,374.4,418.9,374.4,418.5
		z"/>
	<polygon points="403.1,423.5 400.5,423.5 402.7,413 399,413 399.4,410.8 409.4,410.8 409,413 405.3,413 	"/>
	<polygon points="418.6,423.5 421.3,410.8 430.6,410.8 430.2,413 423.4,413 422.8,415.8 429.4,415.8 428.9,417.9 422.3,417.9 
		421.6,421.4 428.9,421.4 428.5,423.5 	"/>
	<polygon points="440.7,423.5 443.3,410.8 445.9,410.8 443.7,421.4 450.2,421.4 449.7,423.5 	"/>
	<path class="st0" d="M244.3,410.1c0.2-0.7,0.4-1.3,0.7-1.8c0.3-0.5,0.7-0.8,1.2-1.1c-0.3-0.3-0.6-0.7-0.9-1.2
		c-0.3-0.5-0.5-1.1-0.7-1.8c-0.2-0.7-0.4-1.6-0.5-2.6c-0.1,1-0.3,1.9-0.5,2.6s-0.4,1.3-0.7,1.8s-0.5,0.9-0.8,1.2
		c0.4,0.3,0.8,0.7,1.2,1.1c0.2,0.3,0.4,0.7,0.6,1.2h-27.5c0.1-0.5,0.4-0.8,0.6-1.2c0.3-0.5,0.7-0.8,1.2-1.1
		c-0.3-0.3-0.6-0.7-0.8-1.2c-0.3-0.5-0.5-1.1-0.7-1.8c-0.2-0.7-0.4-1.6-0.5-2.6c-0.1,1-0.3,1.9-0.5,2.6c-0.2,0.7-0.4,1.3-0.7,1.8
		c-0.3,0.5-0.5,0.9-0.8,1.2c0.4,0.3,0.8,0.7,1.2,1.1c0.3,0.4,0.5,0.9,0.6,1.5h-0.2l-0.1,0.3c-0.1,0.3-0.1,0.6-0.3,0.9
		c-0.1,0.3-0.2,0.5-0.4,0.7c-0.2,0.2-0.3,0.4-0.5,0.6s-0.4,0.3-0.6,0.5l-0.3,0.2l0.2,0.3c0.1,0.1,0.3,0.3,0.4,0.5
		c0.1,0.2,0.3,0.4,0.4,0.6c0.1,0.2,0.2,0.5,0.4,0.8c0.1,0.3,0.2,0.6,0.3,1c0.1,0.4,0.2,0.7,0.3,1.2c0.1,0.4,0.2,0.9,0.2,1.4l0.6,0
		c0.1-0.5,0.1-1,0.2-1.4c0.1-0.4,0.2-0.8,0.3-1.2c0.1-0.4,0.2-0.7,0.3-0.9c0.1-0.3,0.2-0.5,0.4-0.8c0.1-0.2,0.3-0.4,0.4-0.6
		s0.3-0.4,0.4-0.5l0.2-0.3l-0.3-0.2c-0.2-0.1-0.4-0.3-0.6-0.5c-0.2-0.2-0.4-0.4-0.5-0.6c-0.2-0.2-0.3-0.5-0.4-0.7
		c-0.1-0.3-0.2-0.5-0.3-0.9h27.6v0c-0.2,0.7-0.4,1.3-0.8,1.8s-0.7,0.8-1.2,1.1c0.3,0.3,0.6,0.7,0.8,1.2c0.3,0.5,0.5,1.1,0.7,1.8
		c0.2,0.7,0.4,1.6,0.5,2.6c0.1-1,0.3-1.9,0.5-2.6s0.4-1.3,0.7-1.8c0.3-0.5,0.5-0.9,0.9-1.2c-0.5-0.3-0.9-0.7-1.2-1.1
		C244.7,411.4,244.4,410.8,244.3,410.1 M216.3,411.2c-0.1-0.1-0.1-0.3-0.1-0.4c0,0.1-0.1,0.3-0.1,0.4c-0.1,0.3-0.3,0.6-0.5,0.9
		c-0.2,0.2-0.4,0.5-0.6,0.7c-0.1,0.1-0.3,0.3-0.4,0.4c0.1,0.1,0.2,0.2,0.2,0.3c0.1,0.2,0.3,0.4,0.4,0.7s0.3,0.5,0.4,0.8
		c0.1,0.3,0.2,0.6,0.4,1c0.1,0.3,0.2,0.6,0.2,0.9c0.1-0.3,0.1-0.6,0.2-0.9c0.1-0.4,0.2-0.7,0.3-1c0.1-0.3,0.3-0.6,0.4-0.9
		c0.1-0.3,0.3-0.5,0.4-0.7c0.1-0.1,0.2-0.2,0.2-0.3c-0.1-0.1-0.3-0.2-0.4-0.4c-0.2-0.2-0.4-0.4-0.6-0.7
		C216.6,411.8,216.4,411.5,216.3,411.2z M229.9,420.6c-0.3-1-0.3,8.3-13.4,8.9l-15-0.2l0-39.5l13.8,0c8.1,0,13.2,4.9,14.7,9v8.2
		h-10.4v-4.7c0-1,0.1-1.7,0.4-2.3c0.3-0.6,0.9-0.9,1.7-1l1.9-0.2v-2.4h-15.1v2.4l1.9,0.2c0.8,0.1,1.3,0.5,1.6,1
		c0.3,0.6,0.4,1.3,0.4,2.3v14.4c0,1-0.2,1.8-0.5,2.3c-0.4,0.6-0.9,0.9-1.5,1l-1.9,0.2v2.4h15.1v-2.4l-1.9-0.2
		c-0.7-0.1-1.2-0.4-1.6-1c-0.4-0.6-0.5-1.4-0.5-2.3v-4h10.4L229.9,420.6c0.3-1,0.3,8.3,13.5,8.9l15-0.2l0-39.5l-13.8,0
		c-8.1,0-13.2,4.9-14.6,9v8.2h10.9v-4.7c0-1-0.1-1.7-0.4-2.3c-0.3-0.6-0.8-1-1.6-1l-2-0.2v-2.4H252v2.4l-2,0.2
		c-0.7,0.1-1.3,0.5-1.6,1c-0.3,0.6-0.4,1.3-0.4,2.3v14.4c0,1,0.2,1.8,0.5,2.3s0.8,0.9,1.5,1l2,0.2v2.4h-15.1v-2.4l1.9-0.2
		c0.7-0.1,1.2-0.4,1.5-1c0.4-0.6,0.5-1.4,0.5-2.3v-4h-10.9L229.9,420.6z"/>
	<polygon class="st0" points="181.7,405.6 184.6,414.5 194,414.5 186.4,420 189.3,429 181.7,423.4 174.1,429 177,420 169.4,414.5 
		178.8,414.5 	"/>
	<polygon class="st0" points="147.6,405.6 150.5,414.5 159.9,414.5 152.3,420 155.3,429 147.6,423.4 140,429 143,420 135.3,414.5 
		144.8,414.5 	"/>
	<polygon class="st0" points="113.6,405.6 116.5,414.5 125.9,414.5 118.3,420 121.2,429 113.6,423.4 106,429 108.9,420 101.3,414.5 
		110.7,414.5 	"/>
	<polygon class="st0" points="79.6,405.6 82.5,414.5 91.9,414.5 84.3,420 87.2,429 79.6,423.4 72,429 74.9,420 67.3,414.5 
		76.7,414.5 	"/>
	<polygon class="st0" points="45.5,405.6 48.4,414.5 57.8,414.5 50.2,420 53.1,429 45.5,423.4 37.9,429 40.8,420 33.2,414.5 
		42.6,414.5 	"/>
</g>
</svg>
