<svg width="1200" height="600" viewBox="0 0 1200 600" fill="none" xmlns="http://www.w3.org/2000/svg">
<path d="M0 0V600H1200V0H0Z" fill="#012169"/>
<path d="M0 0L1200 600L0 0ZM1200 0L0 600Z" fill="black"/>
<path d="M1200 0L0 600M0 0L1200 600L0 0Z" stroke="white" stroke-width="120"/>
<path d="M0 0L1200 600L0 0ZM1200 0L0 600Z" fill="black"/>
<path d="M1200 0L0 600M0 0L1200 600L0 0Z" stroke="#C8102E" stroke-width="80"/>
<path d="M600 0V600V0ZM0 300H1200Z" fill="black"/>
<path d="M0 300H1200M600 0V600V0Z" stroke="white" stroke-width="200"/>
<path d="M600 0V600V0ZM0 300H1200Z" fill="black"/>
<path d="M0 300H1200M600 0V600V0Z" stroke="#C8102E" stroke-width="120"/>
</svg>
