<?xml version="1.0" encoding="utf-8"?>
<!-- Generator: Adobe Illustrator 25.2.0, SVG Export Plug-In . SVG Version: 6.00 Build 0)  -->
<svg version="1.1" id="Layer_1" xmlns="http://www.w3.org/2000/svg" xmlns:xlink="http://www.w3.org/1999/xlink" x="0px" y="0px"
	 viewBox="0 0 37 37" style="enable-background:new 0 0 37 37;" xml:space="preserve">
<style type="text/css">
	.st0{opacity:0.25;fill:none;stroke:#FFFFFF;stroke-width:1.5;enable-background:new    ;}
	.st1{fill:#FFFFFF;}
</style>
<path class="st0" d="M18.5,36C28.2,36,36,28.2,36,18.5S28.2,1,18.5,1S1,8.8,1,18.5S8.8,36,18.5,36z"/>
<g>
	<g>
		<path class="st1" d="M21,12.4h-5c-2,0-3.6,1.6-3.6,3.6v5c0,2,1.6,3.6,3.6,3.6h5c2,0,3.6-1.6,3.6-3.6v-5
			C24.6,14.1,22.9,12.4,21,12.4L21,12.4z M23.3,21c0,1.3-1.1,2.4-2.4,2.4H16c-1.3,0-2.4-1.1-2.4-2.4v-5c0-1.3,1.1-2.4,2.4-2.4h5
			c1.3,0,2.4,1.1,2.4,2.4L23.3,21L23.3,21z"/>
		<path class="st1" d="M18.5,15.4c-1.7,0-3.1,1.4-3.1,3.1s1.4,3.1,3.1,3.1s3.1-1.4,3.1-3.1S20.2,15.4,18.5,15.4L18.5,15.4z
			 M18.5,20.4c-1.1,0-1.9-0.9-1.9-1.9c0-1.1,0.9-1.9,1.9-1.9s1.9,0.9,1.9,1.9C20.4,19.6,19.6,20.4,18.5,20.4L18.5,20.4z"/>
	</g>
	<path class="st1" d="M22.4,15.4c0,0.4-0.3,0.8-0.8,0.8c-0.4,0-0.8-0.3-0.8-0.8c0-0.4,0.3-0.8,0.8-0.8C22.1,14.6,22.4,15,22.4,15.4
		L22.4,15.4z"/>
</g>
</svg>
