<?xml version="1.0" encoding="utf-8"?>
<!-- Generator: Adobe Illustrator 25.2.0, SVG Export Plug-In . SVG Version: 6.00 Build 0)  -->
<svg version="1.1" id="Layer_1" xmlns="http://www.w3.org/2000/svg" xmlns:xlink="http://www.w3.org/1999/xlink" x="0px" y="0px"
	 viewBox="0 0 180 48" style="enable-background:new 0 0 180 48;" xml:space="preserve">
<style type="text/css">
	.st0{fill-rule:evenodd;clip-rule:evenodd;}
</style>
<g>
	<g>
		<path class="st0" d="M13.2,36.3l0.8-3.5c-0.9,1.4-2,2.4-3.1,3.1s-2.4,1-3.8,1c-2.4,0-4.2-0.8-5.5-2.4c-1.3-1.6-1.8-3.8-1.7-6.5
			c0.2-3.6,1.3-6.7,3.3-9.2S7.8,15,10.6,15c1.6,0,2.9,0.3,3.9,1c0.9,0.7,1.7,1.7,2.1,3.2l2.6-10.8h5.6l-6.5,27.9L13.2,36.3z
			 M11.6,19.7c-1.5,0-2.8,0.8-4,2.3c-1.1,1.5-1.8,3.4-1.8,5.5c-0.1,1.5,0.2,2.7,0.9,3.5c0.7,0.8,1.6,1.2,2.9,1.2
			c1.6,0,3-0.7,4.1-2.2s1.7-3.4,1.8-5.9c0.1-1.4-0.2-2.6-0.9-3.3C13.8,20.1,12.9,19.7,11.6,19.7z"/>
		<path class="st0" d="M47.7,15.7l-4.9,20.6h-5.2l0.8-3.3c-1.3,1.3-2.5,2.3-3.7,2.9c-1.2,0.6-2.4,0.9-3.9,0.9c-2,0-3.5-0.5-4.6-1.5
			c-1.1-1-1.6-2.4-1.5-4.1c0-0.4,0.1-0.8,0.1-1.2c0.1-0.4,0.1-0.8,0.2-1.2l3.1-13.1h5.8l-3.1,13c-0.1,0.2-0.1,0.4-0.2,0.7
			c0,0.2-0.1,0.4-0.1,0.6c0,0.8,0.2,1.3,0.6,1.8c0.4,0.4,1.1,0.6,2,0.6c1.5,0,2.7-0.5,3.8-1.5c1.1-1,1.8-2.4,2.2-4.2l2.7-11
			L47.7,15.7z"/>
		<polygon class="st0" points="48.1,36.3 54.6,8.5 60.3,8.5 56.8,23.2 64.7,15.7 71.2,15.7 62.6,23.7 66.8,36.3 61.1,36.3 
			58.3,27.5 55.1,30.5 53.6,36.3 		"/>
	</g>
	<g>
		<polygon class="st0" points="127.2,13.5 128.4,8.6 134,8.6 132.9,13.5 		"/>
		<path class="st0" d="M117.4,44.5l0.9-4.2h0.2c0.9,0,1.6-0.1,1.9-0.4c0.4-0.3,0.7-0.9,0.9-1.9l5.3-22.1h5.6l-5.3,21.7
			c-0.7,2.8-1.5,4.6-2.7,5.6c-1.1,1-2.9,1.5-5.3,1.5c-0.2,0-0.4,0-0.7,0C118.1,44.6,117.8,44.6,117.4,44.5"/>
		<polygon class="st0" points="138,13.5 139.1,8.6 144.9,8.6 143.7,13.5 		"/>
		<polygon class="st0" points="132.7,36.5 137.5,15.8 143.1,15.9 138.3,36.5 		"/>
		<path class="st0" d="M143.3,36.5l4.8-20.6h5.2l-0.8,3.2c1.2-1.3,2.4-2.3,3.6-2.9c1.2-0.6,2.5-0.9,3.9-0.9c1.9,0,3.4,0.5,4.5,1.5
			c1.1,1,1.6,2.4,1.5,4.1c0,0.4,0,0.8-0.1,1.2c0,0.4-0.1,0.8-0.2,1.2l-3.1,13.2H157l3.1-13.1c0-0.2,0.1-0.5,0.2-0.7
			c0-0.2,0-0.4,0.1-0.6c0-0.8-0.2-1.3-0.6-1.7c-0.4-0.4-1.1-0.6-2-0.6c-1.5,0-2.7,0.5-3.8,1.5c-1.1,1-1.8,2.4-2.2,4.1L149,36.5
			L143.3,36.5z"/>
		<polygon class="st0" points="173.2,13.5 174.3,8.7 180,8.7 178.9,13.5 		"/>
		<polygon class="st0" points="167.9,36.5 172.6,15.9 178.3,15.9 173.5,36.5 		"/>
		<path class="st0" d="M96.6,38.3h5.8c0,0.8,0.2,1.3,0.7,1.8c0.5,0.4,1.3,0.6,2.4,0.6c1.7,0,3-0.4,3.8-1.4c0.8-0.9,1.5-2.9,2.2-6.1
			c-0.9,1.1-1.8,2-2.8,2.5c-1,0.5-2.2,0.8-3.4,0.8c-2.3,0-4.2-0.8-5.4-2.4c-1.3-1.6-1.8-3.8-1.7-6.5c0.2-3.6,1.3-6.6,3.3-8.9
			c2-2.3,4.6-3.5,7.5-3.5c1.7,0,3,0.4,4,1.1c0.9,0.7,1.6,1.9,2,3.5l0.9-4.1h5.5l-4.9,20.6c-0.7,3-1.9,5.1-3.7,6.4
			c-1.8,1.3-4.4,2-7.7,1.9c-2.8,0-4.9-0.5-6.3-1.6C97.3,42,96.6,40.5,96.6,38.3 M109.8,20c-1.6,0-2.9,0.7-4,2.1
			c-1.1,1.4-1.7,3.3-1.8,5.5c-0.1,1.4,0.2,2.5,0.9,3.2c0.7,0.8,1.6,1.1,2.9,1.1c1.6,0,2.9-0.7,4-2.1c1-1.4,1.6-3.2,1.7-5.6
			c0.1-1.4-0.2-2.5-0.8-3.2C112,20.4,111,20,109.8,20z"/>
	</g>
	<g>
		<path class="st0" d="M90.6,18c-0.3,1.3-0.8,2.4-1.4,3.2c-0.6,0.9-1.4,1.6-2.3,2.2c-1.7,1.1-3.2,1.5-4.8,1.2
			c-1.5-0.3-2.7-1.2-3.6-2.8c-1.2-2-1.5-3.9-0.9-5.6c0.6-1.8,2.2-3.7,4.7-5.8c0.2-0.2,0.6-0.5,1-0.8c2-1.6,2.8-3,2.2-4
			C85.2,5.2,84.7,5,84.1,5c-0.7,0-1.4,0.3-2.2,0.9C81,6.4,80.4,7,80.2,7.6c-0.2,0.6-0.3,1.3,0,2l-4.6,3c-0.8-2-0.8-3.9-0.1-5.6
			c0.7-1.7,2.2-3.3,4.5-4.8C82.3,0.7,84.4,0,86.2,0c1.8,0,3.2,0.9,4.1,2.4c0.1,0.2,0.2,0.3,0.3,0.5s0.2,0.4,0.2,0.6L94.6,14
			c0.1,0.2,0.2,0.4,0.3,0.7s0.2,0.4,0.3,0.5c0.2,0.3,0.4,0.5,0.5,0.7c0.2,0.2,0.4,0.2,0.7,0.3l0.2,0.4l-4.9,3.3L90.6,18z M87.5,10.7
			c-0.6,0.7-1.4,1.5-2.5,2.6c-2.1,2-2.8,3.7-2,5.1c0.3,0.5,0.7,0.8,1.3,0.9s1.2-0.1,1.8-0.5c1-0.7,1.8-1.5,2.2-2.6
			c0.4-1.1,0.4-2.2,0.1-3.2L87.5,10.7z"/>
	</g>
	<g>
		<polygon points="134.6,43.3 132.6,43.3 132.1,45.6 131,45.6 132.1,40.4 133.2,40.4 132.8,42.4 134.8,42.4 135.2,40.4 136.2,40.4 
			135.2,45.6 134.1,45.6 		"/>
		<path d="M141.8,43.6c0,0.2,0,0.3,0.1,0.5c0,0.2,0.1,0.3,0.2,0.4c0.1,0.1,0.2,0.2,0.4,0.3c0.1,0.1,0.3,0.1,0.5,0.1
			c0.3,0,0.6-0.1,0.8-0.3c0.1-0.1,0.2-0.2,0.4-0.4s0.2-0.3,0.3-0.5c0.2-0.4,0.2-0.8,0.2-1.1c0-0.2,0-0.4-0.1-0.5
			c0-0.2-0.1-0.3-0.2-0.4c-0.1-0.1-0.2-0.2-0.4-0.2c-0.1,0-0.3-0.1-0.4-0.1c-0.2,0-0.5,0-0.7,0.2c-0.2,0.1-0.4,0.3-0.6,0.5
			c-0.2,0.2-0.3,0.5-0.4,0.8C141.8,43,141.8,43.3,141.8,43.6 M140.7,43.6c0-0.2,0-0.3,0-0.4c0-0.2,0-0.3,0.1-0.5
			c0-0.2,0.1-0.4,0.2-0.7c0.1-0.2,0.2-0.4,0.3-0.5c0.1-0.2,0.2-0.3,0.4-0.4c0.2-0.1,0.3-0.2,0.5-0.4c0.2-0.1,0.4-0.2,0.6-0.2
			s0.4-0.1,0.7-0.1c0.3,0,0.6,0,0.9,0.2c0.2,0.1,0.5,0.2,0.7,0.4s0.4,0.4,0.4,0.7c0.1,0.2,0.2,0.6,0.2,0.9c0,0.3,0,0.5-0.1,0.8
			c0,0.3-0.2,0.5-0.3,0.8c-0.1,0.2-0.3,0.5-0.4,0.7s-0.4,0.4-0.6,0.5c-0.2,0.1-0.4,0.2-0.7,0.3c-0.2,0.1-0.5,0.1-0.8,0.1
			c-0.2,0-0.4,0-0.7-0.1c-0.2,0-0.4-0.1-0.5-0.2c-0.2-0.1-0.3-0.2-0.4-0.4c-0.1-0.1-0.2-0.3-0.3-0.4c-0.1-0.2-0.1-0.3-0.2-0.5
			C140.8,43.9,140.7,43.7,140.7,43.6z"/>
		<polygon points="152.4,45.6 151.4,45.6 152.3,41.3 150.8,41.3 150.9,40.4 155,40.4 154.8,41.3 153.3,41.3 		"/>
		<polygon points="158.8,45.6 159.9,40.4 163.7,40.4 163.5,41.3 160.7,41.3 160.5,42.5 163.2,42.5 163,43.3 160.3,43.3 160,44.7 
			163,44.7 162.8,45.6 		"/>
		<polygon points="167.8,45.6 168.8,40.4 169.9,40.4 169,44.7 171.6,44.7 171.4,45.6 		"/>
	</g>
	<g>
		<path class="st0" d="M87.7,40.1c0.1-0.3,0.2-0.5,0.3-0.7c0.1-0.2,0.3-0.3,0.5-0.4c-0.1-0.1-0.2-0.3-0.4-0.5s-0.2-0.4-0.3-0.7
			c-0.1-0.3-0.2-0.7-0.2-1.1c0,0.4-0.1,0.8-0.2,1.1s-0.2,0.5-0.3,0.7c-0.1,0.2-0.2,0.4-0.3,0.5c0.2,0.1,0.3,0.3,0.5,0.4
			c0.1,0.1,0.2,0.3,0.2,0.5H76.3c0-0.2,0.2-0.3,0.2-0.5c0.1-0.2,0.3-0.3,0.5-0.4c-0.1-0.1-0.2-0.3-0.3-0.5c-0.1-0.2-0.2-0.4-0.3-0.7
			c-0.1-0.3-0.2-0.7-0.2-1.1c0,0.4-0.1,0.8-0.2,1.1s-0.2,0.5-0.3,0.7s-0.2,0.4-0.3,0.5c0.2,0.1,0.3,0.3,0.5,0.4
			c0.1,0.2,0.2,0.4,0.2,0.6H76l0,0.1c0,0.1,0,0.2-0.1,0.4c0,0.1-0.1,0.2-0.2,0.3c-0.1,0.1-0.1,0.2-0.2,0.2c-0.1,0.1-0.2,0.1-0.2,0.2
			l-0.1,0.1l0.1,0.1c0,0,0.1,0.1,0.2,0.2s0.1,0.2,0.2,0.2c0,0.1,0.1,0.2,0.2,0.3c0,0.1,0.1,0.2,0.1,0.4c0,0.2,0.1,0.3,0.1,0.5
			c0,0.2,0.1,0.4,0.1,0.6h0.2c0-0.2,0-0.4,0.1-0.6c0-0.2,0.1-0.3,0.1-0.5c0-0.2,0.1-0.3,0.1-0.4c0-0.1,0.1-0.2,0.2-0.3
			c0-0.1,0.1-0.2,0.2-0.2c0-0.1,0.1-0.2,0.2-0.2l0.1-0.1l-0.1-0.1c-0.1,0-0.2-0.1-0.2-0.2c-0.1-0.1-0.2-0.2-0.2-0.2
			c-0.1-0.1-0.1-0.2-0.2-0.3c0-0.1-0.1-0.2-0.1-0.4L87.7,40.1L87.7,40.1c-0.2,0.3-0.2,0.6-0.4,0.8c-0.2,0.2-0.3,0.3-0.5,0.4
			c0.1,0.1,0.2,0.3,0.3,0.5c0.1,0.2,0.2,0.4,0.3,0.7c0.1,0.3,0.2,0.7,0.2,1.1c0-0.4,0.1-0.8,0.2-1.1s0.2-0.5,0.3-0.7
			c0.1-0.2,0.2-0.4,0.4-0.5c-0.2-0.1-0.4-0.3-0.5-0.4C87.8,40.7,87.7,40.4,87.7,40.1 M76.2,40.6c0,0,0-0.1,0-0.2
			C76.2,40.5,76.2,40.5,76.2,40.6c-0.1,0.1-0.2,0.2-0.3,0.4c-0.1,0.1-0.2,0.2-0.2,0.3c0,0-0.1,0.1-0.2,0.2c0,0,0.1,0.1,0.1,0.1
			c0,0.1,0.1,0.2,0.2,0.3c0,0.1,0.1,0.2,0.2,0.3c0,0.1,0.1,0.2,0.2,0.4c0,0.1,0.1,0.2,0.1,0.4c0-0.1,0-0.2,0.1-0.4
			c0-0.2,0.1-0.3,0.1-0.4c0-0.1,0.1-0.2,0.2-0.4c0-0.1,0.1-0.2,0.2-0.3c0,0,0.1-0.1,0.1-0.1c0,0-0.1-0.1-0.2-0.2
			c-0.1-0.1-0.2-0.2-0.2-0.3C76.4,40.8,76.3,40.7,76.2,40.6z M81.8,44.4c-0.1-0.4-0.1,3.4-5.5,3.6L70.2,48V31.9h5.6
			c3.3,0,5.4,2,6,3.7v3.3h-4.2V37c0-0.4,0-0.7,0.2-0.9c0.1-0.2,0.4-0.4,0.7-0.4l0.8-0.1v-1h-6.2v1l0.8,0.1c0.3,0,0.5,0.2,0.7,0.4
			c0.1,0.2,0.2,0.5,0.2,0.9v5.9c0,0.4-0.1,0.7-0.2,0.9c-0.2,0.2-0.4,0.4-0.6,0.4l-0.8,0.1v1h6.2v-1l-0.8-0.1c-0.3,0-0.5-0.2-0.7-0.4
			s-0.2-0.6-0.2-0.9v-1.6h4.2L81.8,44.4c0.1-0.4,0.1,3.4,5.5,3.6l6.1-0.1V31.9h-5.6c-3.3,0-5.4,2-6,3.7v3.3h4.4V37
			c0-0.4,0-0.7-0.2-0.9c-0.1-0.2-0.3-0.4-0.7-0.4l-0.8-0.1v-1h6.2v1L90,35.6c-0.3,0-0.5,0.2-0.7,0.4c-0.1,0.2-0.2,0.5-0.2,0.9v5.9
			c0,0.4,0.1,0.7,0.2,0.9c0.1,0.2,0.3,0.4,0.6,0.4l0.8,0.1v1h-6.2v-1l0.8-0.1c0.3,0,0.5-0.2,0.6-0.4c0.2-0.2,0.2-0.6,0.2-0.9v-1.6
			h-4.4V44.4L81.8,44.4z"/>
	</g>
	<g>
		<polygon class="st0" points="62.1,38.3 63.3,41.9 67.2,41.9 64.1,44.2 65.2,47.8 62.1,45.6 59,47.8 60.2,44.2 57.1,41.9 61,41.9 
					"/>
		<polygon class="st0" points="48.2,38.3 49.4,41.9 53.2,41.9 50.1,44.2 51.4,47.8 48.2,45.6 45.1,47.8 46.4,44.2 43.2,41.9 
			47.1,41.9 		"/>
		<polygon class="st0" points="34.4,38.3 35.5,41.9 39.4,41.9 36.3,44.2 37.5,47.8 34.4,45.6 31.3,47.8 32.4,44.2 29.3,41.9 
			33.2,41.9 		"/>
		<polygon class="st0" points="20.5,38.3 21.7,41.9 25.5,41.9 22.4,44.2 23.6,47.8 20.5,45.6 17.4,47.8 18.6,44.2 15.5,41.9 
			19.3,41.9 		"/>
		<polygon class="st0" points="6.6,38.3 7.8,41.9 11.6,41.9 8.5,44.2 9.7,47.8 6.6,45.6 3.5,47.8 4.7,44.2 1.6,41.9 5.4,41.9 		"/>
	</g>
</g>
</svg>
