<?xml version="1.0" encoding="utf-8"?>
<!-- Generator: Adobe Illustrator 25.2.0, SVG Export Plug-In . SVG Version: 6.00 Build 0)  -->
<svg version="1.0" id="Layer_1" xmlns="http://www.w3.org/2000/svg" xmlns:xlink="http://www.w3.org/1999/xlink" x="0px" y="0px"
	 width="441.34px" height="117.8px" viewBox="0 0 441.34 117.8" style="enable-background:new 0 0 441.34 117.8;"
	 xml:space="preserve">
<g> 
		<g className="left-group">
			<path fill-rule="evenodd" clip-rule="evenodd" d="M32.44,88.9l2-8.5c-2.3,3.4-4.9,5.9-7.6,7.5c-2.7,1.6-5.8,2.4-9.2,2.4
				c-5.8,0-10.3-2-13.4-5.9s-4.5-9.2-4.2-15.9c0.4-8.9,3.1-16.4,8.1-22.5s11-9.1,17.9-9.1c4,0,7.2,0.8,9.6,2.4
				c2.3,1.6,4.1,4.2,5.2,7.8l6.4-26.4h13.7L45.04,89L32.44,88.9z M28.34,48.4c-3.7,0-6.9,1.9-9.7,5.6c-2.8,3.8-4.3,8.3-4.5,13.6
				c-0.2,3.8,0.5,6.6,2.1,8.6s4,2.9,7.2,2.9c4,0,7.3-1.8,10-5.5s4.1-8.4,4.4-14.4c0.2-3.5-0.5-6.3-2.1-8.1
				C33.94,49.3,31.54,48.4,28.34,48.4z"/>
			<path fill-rule="evenodd" clip-rule="evenodd" d="M117.04,38.4L105.14,89h-12.7l1.9-8.1c-3.1,3.3-6.1,5.7-9,7.2s-6,2.2-9.5,2.2
				c-4.8,0-8.5-1.3-11.2-3.8s-3.9-5.8-3.7-10c0.1-1,0.2-2,0.3-3c0.2-1,0.3-2,0.6-2.9l7.6-32.2h14.2l-7.6,31.8
				c-0.2,0.6-0.3,1.1-0.4,1.7c-0.1,0.5-0.2,1.1-0.2,1.5c-0.1,1.9,0.4,3.3,1.5,4.3s2.7,1.5,4.8,1.5c3.6,0,6.7-1.2,9.3-3.7
				c2.7-2.5,4.5-5.9,5.5-10.2l6.5-27L117.04,38.4z"/>
			<polygon fill-rule="evenodd" clip-rule="evenodd" points="117.84,89.1 133.84,20.8 147.74,20.8 139.24,56.8 158.74,38.5 
				174.54,38.5 153.54,58.2 163.84,89.1 149.74,89.1 142.84,67.4 135.04,74.8 131.44,89.1 			"/>
		</g>
      <g className="right-group"> 
		<polygon fill-rule="evenodd" clip-rule="evenodd" points="311.84,33.1 314.74,21.1 328.54,21.2 325.74,33.2 		"/>
		<path fill-rule="evenodd" clip-rule="evenodd" d="M287.94,109.2l2.1-10.4h0.6c2.3,0,3.9-0.3,4.7-1c0.9-0.7,1.6-2.3,2.3-4.6
			l13-54.3h13.8l-12.9,53.3c-1.6,6.8-3.7,11.4-6.5,13.8c-2.7,2.4-7,3.6-13,3.6c-0.5,0-1,0-1.7-0.1
			C289.64,109.4,288.84,109.3,287.94,109.2"/>
		<polygon fill-rule="evenodd" clip-rule="evenodd" points="338.34,33.1 341.14,21.2 355.14,21.2 352.44,33.1 		"/>
		<polygon fill-rule="evenodd" clip-rule="evenodd" points="325.24,89.4 337.04,38.8 350.94,38.9 339.14,89.4 		"/>
		<path fill-rule="evenodd" clip-rule="evenodd" d="M351.44,89.5l11.8-50.6h12.8l-1.9,7.8c3-3.3,6-5.7,8.9-7.1
			c2.9-1.5,6.1-2.2,9.6-2.2c4.7,0,8.4,1.3,11.1,3.8s3.9,5.9,3.7,10.1c0,1-0.1,2-0.3,2.9c-0.1,1-0.3,2-0.6,3l-7.7,32.4h-14l7.5-32.1
			c0.1-0.6,0.3-1.3,0.4-1.8c0.1-0.6,0.1-1,0.2-1.4c0.1-1.9-0.4-3.3-1.5-4.2c-1.1-1-2.7-1.5-4.9-1.5c-3.6,0-6.7,1.2-9.3,3.6
			c-2.7,2.5-4.5,5.8-5.5,10.1l-6.4,27.3L351.44,89.5z"/>
		<polygon fill-rule="evenodd" clip-rule="evenodd" points="424.64,33.2 427.44,21.3 441.34,21.4 438.64,33.2 		"/>
		<polygon fill-rule="evenodd" clip-rule="evenodd" points="411.54,89.6 423.24,39 437.14,39 425.44,89.6 		"/>
		
     
      
		<path fill-rule="evenodd" clip-rule="evenodd" d="M236.94,94h14.1c0,1.9,0.6,3.3,1.8,4.3c1.3,0.9,3.2,1.4,5.9,1.4
			c4.2,0,7.3-1.1,9.3-3.4c2-2.2,3.8-7.2,5.5-14.9c-2.1,2.8-4.4,4.8-6.9,6.2c-2.5,1.3-5.3,2-8.4,2c-5.7,0-10.2-2-13.3-5.8
			c-3.1-3.9-4.5-9.2-4.2-15.9c0.4-8.8,3.2-16.1,8.2-21.8c5-5.7,11.2-8.5,18.5-8.5c4.1,0,7.4,0.9,9.7,2.7c2.3,1.8,3.9,4.7,4.9,8.6
			l2.3-10.1h13.4l-12,50.4c-1.7,7.3-4.7,12.6-9.1,15.8c-4.4,3.2-10.7,4.8-19,4.7c-6.8,0-11.9-1.3-15.4-4
			C238.54,103.1,236.84,99.2,236.94,94 M269.14,49c-3.9,0-7.2,1.7-9.9,5.2c-2.7,3.5-4.2,8-4.4,13.4c-0.2,3.4,0.6,6.1,2.2,7.9
			c1.6,1.9,4,2.8,7.2,2.8c3.9,0,7.2-1.7,9.7-5.1s3.9-7.9,4.2-13.7c0.2-3.5-0.5-6.1-2-7.9C274.54,49.9,272.24,49,269.14,49z"/>
          </g>
          <g className="top-group">
         <path fill-rule="evenodd" clip-rule="evenodd" d="M222.14,44.2c-0.8,3.2-2,5.8-3.4,7.9c-1.5,2.1-3.4,3.9-5.7,5.5
			c-4.1,2.7-7.9,3.6-11.7,2.9c-3.7-0.7-6.7-3-8.9-6.8c-2.9-4.9-3.6-9.5-2.2-13.8c1.4-4.3,5.3-9.1,11.6-14.2c0.6-0.5,1.4-1.2,2.5-2
			c5-4,6.8-7.3,5.3-9.8c-0.7-1.2-1.9-1.7-3.5-1.6s-3.5,0.8-5.5,2.1c-2,1.3-3.4,2.7-4,4.2s-0.7,3.1,0,4.9l-11.3,7.4
			c-1.9-5-2-9.6-0.2-13.8c1.8-4.2,5.5-8.1,11.1-11.8c5.6-3.6,10.6-5.4,15-5.3s7.8,2.1,10,5.9c0.2,0.4,0.5,0.8,0.7,1.3
			s0.4,0.9,0.6,1.4l9.5,25.8c0.3,0.6,0.5,1.1,0.7,1.6s0.4,0.9,0.7,1.3c0.4,0.7,0.9,1.3,1.3,1.6c0.5,0.4,1,0.6,1.7,0.7l0.6,1.1
			l-12.1,8L222.14,44.2z M214.54,26.2c-1.4,1.7-3.5,3.8-6.2,6.4c-5.2,4.9-6.9,9.1-4.9,12.5c0.8,1.3,1.8,2,3.2,2.2s2.9-0.3,4.5-1.3
			c2.5-1.6,4.3-3.8,5.3-6.4c1-2.7,1.1-5.3,0.2-7.8L214.54,26.2z"/>
         </g> 
   <g className="bottom-right-group">
	<polygon points="330.04,106.1 325.04,106.1 323.94,111.8 321.24,111.8 323.94,99.1 326.54,99.1 325.54,104 330.44,104 331.44,99.1 
		334.04,99.1 331.44,111.8 328.84,111.8 	"/>
	<path d="M347.64,106.8c0,0.4,0.1,0.8,0.2,1.2c0.1,0.4,0.3,0.7,0.6,1c0.3,0.3,0.6,0.5,0.9,0.7s0.7,0.2,1.2,0.2c0.7,0,1.4-0.2,2-0.7
		c0.3-0.2,0.6-0.5,0.9-0.9s0.5-0.8,0.7-1.2c0.4-0.9,0.6-1.9,0.6-2.8c0-0.5-0.1-0.9-0.2-1.3s-0.3-0.7-0.6-1c-0.3-0.3-0.6-0.5-0.9-0.6
		s-0.7-0.2-1.1-0.2c-0.6,0-1.2,0.1-1.7,0.5c-0.5,0.3-1,0.8-1.4,1.3s-0.7,1.2-0.9,1.9C347.74,105.4,347.64,106.1,347.64,106.8
		 M345.04,106.8c0-0.4,0-0.8,0.1-1.1c0-0.4,0.1-0.8,0.3-1.2c0.1-0.6,0.3-1.1,0.6-1.6c0.2-0.5,0.5-0.9,0.8-1.3s0.6-0.8,1-1.1
		c0.4-0.3,0.8-0.6,1.3-0.9c0.5-0.2,1-0.4,1.5-0.5s1.1-0.2,1.7-0.2c0.8,0,1.5,0.1,2.1,0.4s1.2,0.6,1.7,1.1s0.9,1,1.1,1.7
		c0.2,0.6,0.4,1.4,0.4,2.2c0,0.7-0.1,1.3-0.2,2s-0.4,1.3-0.7,1.9c-0.3,0.6-0.7,1.2-1.1,1.7s-0.9,0.9-1.5,1.2
		c-0.5,0.3-1.1,0.6-1.7,0.8c-0.6,0.2-1.3,0.3-1.9,0.3s-1.1-0.1-1.6-0.2s-0.9-0.3-1.3-0.6c-0.4-0.3-0.8-0.6-1-0.9
		c-0.3-0.3-0.5-0.7-0.7-1.1s-0.3-0.8-0.4-1.2C345.14,107.6,345.04,107.2,345.04,106.8z"/>
	<polygon points="373.74,111.8 371.14,111.8 373.34,101.3 369.64,101.3 370.04,99.1 380.04,99.1 379.64,101.3 375.94,101.3 	"/>
	<polygon points="389.24,111.8 391.94,99.1 401.24,99.1 400.84,101.3 394.04,101.3 393.44,104.1 400.04,104.1 399.54,106.2 
		392.94,106.2 392.24,109.7 399.54,109.7 399.14,111.8 	"/>
	<polygon points="411.34,111.8 413.94,99.1 416.54,99.1 414.34,109.7 420.84,109.7 420.34,111.8 	"/>
   </g>
   <g className="center-group">
	<path fill-rule="evenodd" clip-rule="evenodd" d="M214.94,98.4c0.2-0.7,0.4-1.3,0.7-1.8s0.7-0.8,1.2-1.1c-0.3-0.3-0.6-0.7-0.9-1.2
		c-0.3-0.5-0.5-1.1-0.7-1.8c-0.2-0.7-0.4-1.6-0.5-2.6c-0.1,1-0.3,1.9-0.5,2.6s-0.4,1.3-0.7,1.8s-0.5,0.9-0.8,1.2
		c0.4,0.3,0.8,0.7,1.2,1.1c0.2,0.3,0.4,0.7,0.6,1.2h-27.5c0.1-0.5,0.4-0.8,0.6-1.2c0.3-0.5,0.7-0.8,1.2-1.1
		c-0.3-0.3-0.6-0.7-0.8-1.2c-0.3-0.5-0.5-1.1-0.7-1.8c-0.2-0.7-0.4-1.6-0.5-2.6c-0.1,1-0.3,1.9-0.5,2.6s-0.4,1.3-0.7,1.8
		s-0.5,0.9-0.8,1.2c0.4,0.3,0.8,0.7,1.2,1.1c0.3,0.4,0.5,0.9,0.6,1.5h-0.2l-0.1,0.3c-0.1,0.3-0.1,0.6-0.3,0.9
		c-0.1,0.3-0.2,0.5-0.4,0.7s-0.3,0.4-0.5,0.6s-0.4,0.3-0.6,0.5l-0.3,0.2l0.2,0.3c0.1,0.1,0.3,0.3,0.4,0.5c0.1,0.2,0.3,0.4,0.4,0.6
		c0.1,0.2,0.2,0.5,0.4,0.8c0.1,0.3,0.2,0.6,0.3,1s0.2,0.7,0.3,1.2c0.1,0.4,0.2,0.9,0.2,1.4h0.6c0.1-0.5,0.1-1,0.2-1.4
		c0.1-0.4,0.2-0.8,0.3-1.2c0.1-0.4,0.2-0.7,0.3-0.9c0.1-0.3,0.2-0.5,0.4-0.8c0.1-0.2,0.3-0.4,0.4-0.6s0.3-0.4,0.4-0.5l0.2-0.3
		l-0.3-0.2c-0.2-0.1-0.4-0.3-0.6-0.5c-0.2-0.2-0.4-0.4-0.5-0.6c-0.2-0.2-0.3-0.5-0.4-0.7c-0.1-0.3-0.2-0.5-0.3-0.9h27.6l0,0
		c-0.2,0.7-0.4,1.3-0.8,1.8s-0.7,0.8-1.2,1.1c0.3,0.3,0.6,0.7,0.8,1.2c0.3,0.5,0.5,1.1,0.7,1.8c0.2,0.7,0.4,1.6,0.5,2.6
		c0.1-1,0.3-1.9,0.5-2.6s0.4-1.3,0.7-1.8s0.5-0.9,0.9-1.2c-0.5-0.3-0.9-0.7-1.2-1.1C215.34,99.7,215.04,99.1,214.94,98.4
		 M186.94,99.5c-0.1-0.1-0.1-0.3-0.1-0.4c0,0.1-0.1,0.3-0.1,0.4c-0.1,0.3-0.3,0.6-0.5,0.9c-0.2,0.2-0.4,0.5-0.6,0.7
		c-0.1,0.1-0.3,0.3-0.4,0.4c0.1,0.1,0.2,0.2,0.2,0.3c0.1,0.2,0.3,0.4,0.4,0.7s0.3,0.5,0.4,0.8c0.1,0.3,0.2,0.6,0.4,1
		c0.1,0.3,0.2,0.6,0.2,0.9c0.1-0.3,0.1-0.6,0.2-0.9c0.1-0.4,0.2-0.7,0.3-1s0.3-0.6,0.4-0.9c0.1-0.3,0.3-0.5,0.4-0.7
		c0.1-0.1,0.2-0.2,0.2-0.3c-0.1-0.1-0.3-0.2-0.4-0.4c-0.2-0.2-0.4-0.4-0.6-0.7C187.24,100.1,187.04,99.8,186.94,99.5z M200.54,108.9
		c-0.3-1-0.3,8.3-13.4,8.9l-15-0.2V78.1h13.8c8.1,0,13.2,4.9,14.7,9v8.2h-10.4v-4.7c0-1,0.1-1.7,0.4-2.3c0.3-0.6,0.9-0.9,1.7-1
		l1.9-0.2v-2.4h-15.1v2.4l1.9,0.2c0.8,0.1,1.3,0.5,1.6,1c0.3,0.6,0.4,1.3,0.4,2.3V105c0,1-0.2,1.8-0.5,2.3c-0.4,0.6-0.9,0.9-1.5,1
		l-1.9,0.2v2.4h15.1v-2.4l-1.9-0.2c-0.7-0.1-1.2-0.4-1.6-1c-0.4-0.6-0.5-1.4-0.5-2.3v-4h10.4L200.54,108.9c0.3-1,0.3,8.3,13.5,8.9
		l15-0.2V78.1h-13.8c-8.1,0-13.2,4.9-14.6,9v8.2h10.9v-4.7c0-1-0.1-1.7-0.4-2.3c-0.3-0.6-0.8-1-1.6-1l-2-0.2v-2.4h15.1v2.4l-2,0.2
		c-0.7,0.1-1.3,0.5-1.6,1c-0.3,0.6-0.4,1.3-0.4,2.3V105c0,1,0.2,1.8,0.5,2.3s0.8,0.9,1.5,1l2,0.2v2.4h-15.1v-2.4l1.9-0.2
		c0.7-0.1,1.2-0.4,1.5-1c0.4-0.6,0.5-1.4,0.5-2.3v-4h-10.9V108.9z"/>
      </g>
      <g className="bottom-left-group">
	<polygon fill-rule="evenodd" clip-rule="evenodd" points="152.34,93.9 155.24,102.8 164.64,102.8 157.04,108.3 159.94,117.3 
		152.34,111.7 144.74,117.3 147.64,108.3 140.04,102.8 149.44,102.8 	"/>
	<polygon fill-rule="evenodd" clip-rule="evenodd" points="118.24,93.9 121.14,102.8 130.54,102.8 122.94,108.3 125.94,117.3 
		118.24,111.7 110.64,117.3 113.64,108.3 105.94,102.8 115.44,102.8 	"/>
	<polygon fill-rule="evenodd" clip-rule="evenodd" points="84.24,93.9 87.14,102.8 96.54,102.8 88.94,108.3 91.84,117.3 
		84.24,111.7 76.64,117.3 79.54,108.3 71.94,102.8 81.34,102.8 	"/>
	<polygon fill-rule="evenodd" clip-rule="evenodd" points="50.24,93.9 53.14,102.8 62.54,102.8 54.94,108.3 57.84,117.3 
		50.24,111.7 42.64,117.3 45.54,108.3 37.94,102.8 47.34,102.8 	"/>
	<polygon fill-rule="evenodd" clip-rule="evenodd" points="16.14,93.9 19.04,102.8 28.44,102.8 20.84,108.3 23.74,117.3 
		16.14,111.7 8.54,117.3 11.44,108.3 3.84,102.8 13.24,102.8 	"/>
      </g>
</g>
</svg>