<svg width="20" height="20" viewBox="0 0 20 20" fill="none" xmlns="http://www.w3.org/2000/svg">
<g clip-path="url(#clip0_43_1665)">
<path d="M15.9864 11.2174C15.7113 11.2174 15.4403 11.1122 15.23 10.9019C12.3419 8.0179 7.64984 8.0179 4.76178 10.9019C4.34516 11.3185 3.66562 11.3185 3.24899 10.9019C2.83237 10.4853 2.83237 9.80575 3.24899 9.38912C6.9703 5.66782 13.0215 5.66782 16.7428 9.38912C17.1594 9.80575 17.1594 10.4853 16.7428 10.9019C16.5324 11.1122 16.2574 11.2174 15.9864 11.2174Z" fill="#C38F5B"/>
<path d="M13.0901 14.1095C12.815 14.1095 12.544 14.0043 12.3337 13.794C11.7108 13.1711 10.8775 12.8272 9.99573 12.8272C9.11394 12.8272 8.28069 13.1711 7.65778 13.794C7.24115 14.2106 6.56161 14.2106 6.14499 13.794C5.72836 13.3774 5.72836 12.6978 6.14499 12.2812C7.17239 11.2538 8.53957 10.6875 9.99573 10.6875C11.4519 10.6875 12.8191 11.2538 13.8465 12.2852C14.2631 12.7019 14.2631 13.3814 13.8465 13.798C13.6402 14.0043 13.3651 14.1095 13.0901 14.1095Z" fill="#C38F5B"/>
<path d="M9.99572 17.5637C10.7843 17.5637 11.4236 16.9244 11.4236 16.1359C11.4236 15.3473 10.7843 14.708 9.99572 14.708C9.20714 14.708 8.56787 15.3473 8.56787 16.1359C8.56787 16.9244 9.20714 17.5637 9.99572 17.5637Z" fill="#C38F5B"/>
<path d="M18.9271 8.27687C18.652 8.27687 18.381 8.1717 18.1707 7.96137C13.6606 3.45535 6.33128 3.45535 1.82526 7.96137C1.40864 8.37799 0.729093 8.37799 0.312468 7.96137C-0.104156 7.54474 -0.104156 6.8652 0.312468 6.44858C2.9012 3.85984 6.33937 2.43604 10 2.43604C13.6606 2.43604 17.0988 3.85984 19.6875 6.44858C20.1042 6.8652 20.1042 7.54474 19.6875 7.96137C19.4732 8.1717 19.1981 8.27687 18.9271 8.27687Z" fill="#C38F5B"/>
</g>
<defs>
<clipPath id="clip0_43_1665">
<rect width="20" height="20" fill="white"/>
</clipPath>
</defs>
</svg>
